<svg version="1.1" id="Layer_1" xmlns="http://www.w3.org/2000/svg" xmlns:xlink="http://www.w3.org/1999/xlink" x="0px" y="0px"
	 width="100%" viewBox="0 0 620 494" enable-background="new 0 0 620 494" xml:space="preserve">
<path fill="#8813FD" opacity="1.000000" stroke="none" 
	d="
M1.000000,264.000000 
	C1.000000,253.645767 1.000000,243.291550 1.416617,232.539948 
	C10.143238,231.061890 17.993685,228.816528 25.185429,224.234543 
	C41.052208,214.125580 49.440102,198.716507 55.771133,181.814941 
	C62.753181,163.175400 65.575943,143.629303 68.292892,124.338173 
	C69.880096,128.584671 71.285263,132.523346 72.800880,136.771622 
	C76.295006,134.253036 76.212746,131.687317 74.941048,128.835892 
	C73.850433,126.390480 74.212875,124.347633 77.224251,124.156113 
	C81.356522,123.893295 83.682045,122.090317 84.264351,117.904114 
	C84.371468,117.134064 85.398834,116.193733 86.214951,115.869591 
	C91.071289,113.940781 92.150803,110.118210 92.084816,105.393585 
	C92.061798,103.745834 92.713715,100.832123 93.548370,100.641037 
	C97.713638,99.687393 99.794289,97.317245 100.613419,93.292984 
	C100.734451,92.698349 102.357925,92.535477 103.048515,91.910233 
	C107.274483,88.084213 111.452911,84.204521 115.579102,80.271294 
	C115.984596,79.884758 115.826492,78.963966 116.114052,78.382111 
	C116.463455,77.675102 116.938728,76.562897 117.478958,76.488075 
	C124.990829,75.447617 124.076660,69.814957 123.983818,64.683495 
	C123.935921,62.035439 125.274315,61.107594 127.461868,59.593407 
	C131.973801,56.470310 135.647583,52.126957 139.598907,48.217621 
	C140.001297,47.819515 139.837814,46.903885 140.130676,46.326717 
	C140.486572,45.625317 140.981827,44.534481 141.530701,44.460804 
	C148.717636,43.496140 148.149292,38.185516 147.990707,33.124176 
	C147.905182,30.394941 148.358047,28.488577 151.623123,27.619652 
	C153.295578,27.174566 154.486481,24.871901 155.863174,23.379375 
	C156.885834,22.270664 157.676804,20.427094 158.885605,20.109905 
	C162.374771,19.194355 163.643539,17.117435 164.141083,13.743322 
	C164.339218,12.399560 165.940704,10.426431 167.165558,10.207590 
	C174.504745,8.896332 181.962967,8.236705 189.283127,6.843121 
	C191.357925,6.448133 193.104645,4.330002 195.470276,2.998766 
	C255.623795,3.002288 315.308838,3.009172 374.810547,3.355102 
	C374.090485,4.057301 373.578186,4.691916 373.013367,4.742755 
	C364.957367,5.467829 356.897522,6.160491 348.829071,6.723898 
	C347.746796,6.799470 346.614990,5.854610 345.501526,5.843535 
	C337.383209,5.762784 329.263733,5.800066 321.144623,5.800066 
	C321.111603,6.345063 321.078613,6.890059 321.045593,7.435056 
	C324.640778,7.624285 328.273743,7.563141 331.816925,8.097342 
	C333.917389,8.414033 337.433075,9.409923 337.623444,10.549591 
	C338.362305,14.972684 339.674225,20.612612 337.648712,23.837238 
	C335.356293,27.486872 331.492859,32.052326 327.914673,33.594013 
	C322.115509,36.092659 321.723511,39.469814 321.954681,44.282551 
	C322.001282,45.253033 322.015686,46.802357 321.469299,47.132713 
	C317.089203,49.780930 314.353943,54.035103 310.777832,57.374424 
	C308.898712,59.129097 305.986542,59.549786 305.581726,62.927998 
	C305.470734,63.854126 304.310028,65.154259 303.398102,65.392975 
	C300.393219,66.179558 299.067322,67.963470 298.577850,70.947174 
	C298.392914,72.074257 297.172668,73.737770 296.199158,73.914230 
	C290.020569,75.034142 290.496368,79.993591 290.083832,84.262016 
	C289.768799,87.522224 288.643372,89.482727 285.223877,90.174583 
	C284.057648,90.410538 282.993195,91.813812 282.156128,92.895653 
	C278.819214,97.208366 275.595245,101.608406 272.308075,105.959938 
	C272.123413,106.204384 271.759491,106.422150 271.458282,106.453522 
	C266.786652,106.939911 266.357239,110.450371 265.628235,114.184647 
	C263.106415,114.558693 260.973663,114.960068 258.838959,114.970947 
	C246.711456,115.032753 234.582703,114.935555 222.456421,115.072365 
	C220.639084,115.092865 218.832428,116.060951 216.879959,116.888916 
	C216.483612,117.794075 216.228119,118.401009 215.724533,119.001129 
	C215.476425,118.994316 214.980118,118.984024 214.835022,118.802467 
	C214.482834,118.388527 214.255341,118.178253 213.859985,117.813934 
	C213.504456,117.411674 213.276825,117.207336 212.670273,117.066177 
	C211.539383,118.406563 210.767868,119.705551 209.787567,121.360222 
	C209.390045,123.854614 209.038330,125.993187 209.036530,128.132050 
	C208.998276,173.755905 208.999298,219.379791 208.578110,265.003418 
	C204.539948,264.828217 202.661041,266.092712 200.588303,269.681305 
	C198.195847,273.823425 192.918152,276.143402 190.327713,280.702271 
	C190.091522,281.117950 188.755249,280.956970 187.927643,280.978058 
	C186.263809,281.020447 184.426147,280.557617 182.975082,281.118256 
	C180.915863,281.913788 179.140839,283.444916 177.244370,284.661713 
	C178.736053,286.124603 180.269104,287.548248 181.706253,289.062927 
	C182.837067,290.254761 184.793808,291.653381 184.680099,292.789673 
	C184.531693,294.272705 182.841049,295.737823 181.553909,296.929840 
	C180.406570,297.992371 177.852509,298.545868 177.732376,299.542633 
	C176.990784,305.694641 172.658401,305.133759 168.468689,304.991272 
	C164.688293,304.862701 161.453873,305.288422 160.778915,310.063690 
	C160.635437,311.078644 159.269928,312.586884 158.317703,312.710052 
	C153.289352,313.360260 152.842712,316.726349 152.980225,320.708282 
	C153.083572,323.701263 153.010300,326.700684 152.997482,329.697205 
	C152.967529,336.700287 152.712967,337.059174 145.648148,336.959076 
	C141.189423,336.895905 137.147812,337.001312 136.586823,342.856903 
	C136.526260,343.488983 135.582809,344.486603 134.973068,344.546814 
	C128.408524,345.195129 129.036346,349.932404 128.911255,354.521606 
	C128.857178,356.505890 128.100647,360.046478 127.232025,360.185486 
	C119.834145,361.369263 121.283440,366.814301 120.865761,371.672333 
	C120.712036,373.460480 119.395187,376.351227 118.146881,376.623871 
	C113.892342,377.553101 113.199554,380.157288 112.827194,383.827240 
	C112.028130,391.702759 111.859795,391.685669 104.513512,392.814819 
	C97.071449,393.958649 97.055756,393.976868 96.999878,401.557281 
	C96.947060,408.722076 96.732109,408.944336 89.789322,408.999176 
	C88.956993,409.005768 88.122810,409.042358 87.292542,409.002045 
	C82.867386,408.787323 80.795593,410.883789 80.998001,415.303070 
	C81.058853,416.631897 80.969505,417.966919 81.001785,419.297821 
	C81.077454,422.418060 80.613434,425.055634 76.555984,424.950531 
	C72.362358,424.841858 73.143539,421.731995 73.007515,419.173157 
	C72.484047,409.326080 71.969978,399.478516 71.452400,389.631134 
	C71.088913,389.640625 70.725426,389.650116 70.361938,389.659607 
	C70.048370,390.411774 69.734810,391.163971 69.314919,391.465820 
	C68.106926,379.284302 67.441811,367.492035 65.810387,355.834961 
	C62.662727,333.343933 57.300220,311.426941 44.935280,291.957672 
	C34.719860,275.872925 20.815184,265.191681 1.000000,264.000000 
M68.187012,135.596161 
	C68.695847,137.571609 69.204681,139.547058 69.713524,141.522507 
	C70.189072,141.414627 70.664619,141.306732 71.140167,141.198853 
	C70.616714,138.486435 70.093262,135.774033 69.569801,133.061615 
	C69.233681,133.090851 68.897552,133.120087 68.561432,133.149323 
	C68.416130,133.738342 68.270828,134.327347 68.187012,135.596161 
z"/>
<path fill="#7111F6" opacity="1.000000" stroke="none" 
	d="
M621.000000,232.000000 
	C621.000000,242.354233 621.000000,252.708450 620.578003,263.464966 
	C600.958557,265.808228 587.164673,276.095154 576.993896,291.905701 
	C574.225281,296.209534 571.650513,300.637939 568.695801,305.033905 
	C567.878723,305.376770 567.278259,305.615173 566.837891,306.025391 
	C562.378235,310.179535 563.966980,315.952667 562.426392,321.007202 
	C559.115601,321.727051 554.256165,321.796204 553.762695,323.298950 
	C552.531616,327.047852 550.902283,328.913757 547.114014,329.464111 
	C546.315247,329.580170 545.761841,331.143188 545.026611,331.979004 
	C541.412415,336.087952 538.491211,341.598663 533.950867,343.884888 
	C529.103821,346.325562 528.885376,349.215759 528.985291,353.285583 
	C529.061340,356.385315 528.412292,358.765778 525.349976,360.806213 
	C520.986145,363.713959 517.261658,367.594666 513.354797,371.159210 
	C512.823792,371.643738 512.928040,372.763123 512.539062,373.480652 
	C512.075439,374.335724 511.504364,375.640686 510.795044,375.775085 
	C504.362396,376.993744 504.822845,381.755096 504.953674,386.499939 
	C505.071991,390.791595 502.851654,392.966492 498.541107,392.977875 
	C497.043182,392.981842 495.542145,393.068756 494.048004,392.999542 
	C490.437988,392.832336 488.946198,394.540894 488.963806,398.108185 
	C488.976807,400.739075 489.552002,404.442688 488.114746,405.793121 
	C484.543457,409.148621 481.611145,413.752716 477.764801,415.934998 
	C473.382812,418.421234 473.141266,421.022003 472.871704,424.942596 
	C472.704712,427.371490 471.939972,431.047729 470.324585,431.818329 
	C467.042084,433.384125 464.946014,435.186493 463.885529,438.617096 
	C463.614594,439.493347 462.088348,439.937134 461.229187,440.683563 
	C457.236816,444.151855 453.270905,447.650757 449.318817,451.164825 
	C449.104858,451.355072 449.190186,451.862823 448.986572,452.086609 
	C445.200317,456.247559 442.012024,461.418854 437.388428,464.202484 
	C433.763000,466.385193 432.781647,468.376892 433.006317,471.905731 
	C433.287048,476.314423 433.138367,480.379669 427.416412,481.286346 
	C426.628357,481.411255 425.538025,482.421448 425.367157,483.194122 
	C424.288483,488.072388 420.671326,487.974854 416.843292,488.033417 
	C400.057983,488.290253 383.275208,488.713135 366.489838,488.965576 
	C363.542023,489.009888 361.916626,489.693878 362.528107,492.992676 
	C343.705353,492.992676 325.350861,492.990234 306.820557,492.654724 
	C299.520538,491.214447 292.423370,489.852936 285.262421,489.091278 
	C280.648346,488.600525 275.927002,489.187439 271.282990,488.867126 
	C269.871582,488.769806 268.557709,487.258179 267.199158,486.394348 
	C268.205231,485.283478 269.180145,484.142334 270.224548,483.068756 
	C271.808533,481.440613 273.494690,479.908966 275.029236,478.237000 
	C275.772675,477.426941 276.185181,475.653351 276.892090,475.571960 
	C283.720947,474.785980 283.169525,469.845703 282.986053,465.123260 
	C282.857422,461.811646 284.134857,460.375824 287.276703,458.488525 
	C291.841858,455.746216 295.141907,450.877258 298.928558,446.865234 
	C302.585266,442.990845 305.719238,438.409729 309.973541,435.396698 
	C312.336700,433.722992 314.788422,432.997559 315.235840,429.710785 
	C315.348083,428.886353 316.282593,427.587402 316.948486,427.515228 
	C323.842255,426.768341 323.142456,421.728516 322.977844,417.054871 
	C322.859406,413.691803 324.282043,412.355621 327.333496,410.464935 
	C331.604279,407.818695 334.210175,402.654297 338.713165,399.766052 
	C338.817688,399.699005 338.759735,399.407867 338.861755,399.303375 
	C340.312500,397.816467 341.722931,396.283081 343.261627,394.892029 
	C344.093109,394.140411 345.455994,393.848083 346.048828,392.984497 
	C348.042511,390.080139 349.798218,387.012390 351.891754,383.605469 
	C351.270325,383.299316 349.989624,382.668365 349.764679,382.557556 
	C350.832977,379.899475 351.407318,378.470428 352.343323,376.896057 
	C354.731415,376.284698 356.757812,375.818726 359.044800,375.635193 
	C362.928711,375.518402 366.566254,374.699921 370.171875,374.822266 
	C375.059174,374.988129 377.734131,373.233490 378.185822,368.104004 
	C378.662231,367.811493 378.966766,367.749939 379.797546,367.824341 
	C383.136658,367.900146 386.016846,368.252441 388.779877,367.833130 
	C390.225342,367.613770 392.623505,366.019989 392.608154,365.079376 
	C392.514771,359.362183 395.812836,359.135742 400.377991,360.264862 
	C397.999878,356.624359 400.520264,355.124451 402.481720,353.380066 
	C405.029877,351.113892 407.667175,348.927612 410.019135,346.470551 
	C411.044342,345.399597 411.455933,343.741272 412.146179,342.349701 
	C410.622833,341.901215 409.099518,341.452759 407.681244,340.647156 
	C409.459991,336.737183 411.133667,333.184326 412.954529,329.961609 
	C413.191498,332.326385 413.281250,334.361023 413.371002,336.395691 
	C414.742340,335.573792 415.711792,334.392792 415.871948,333.110748 
	C416.338715,329.373749 416.616882,325.598572 416.679504,321.833527 
	C416.701691,320.499115 415.889923,319.150818 415.458191,317.448242 
	C415.640625,316.391785 415.823730,315.695984 416.388580,314.967590 
	C418.125305,313.932159 420.010284,313.211426 420.725403,311.867950 
	C422.229492,309.042175 423.436493,305.961395 424.142822,302.844269 
	C424.565552,300.978729 424.419861,298.419983 423.400391,296.963104 
	C422.517395,295.701263 420.042847,295.553070 417.792419,294.739319 
	C417.792419,301.052216 417.792419,306.101501 417.792419,312.480072 
	C417.091736,310.172089 416.779419,309.143311 416.378784,307.706726 
	C416.373016,306.475555 416.455566,305.652191 416.642761,304.514069 
	C416.546448,302.474609 416.345490,300.749878 416.043945,298.652374 
	C415.832062,296.748474 415.720764,295.217377 415.857849,293.335815 
	C417.225403,292.353790 418.392181,291.106201 419.456146,291.188446 
	C427.632843,291.820465 427.826569,281.605194 434.491364,280.230194 
	C434.845459,280.157135 434.799286,278.659180 435.151215,277.926239 
	C435.562531,277.069611 436.135681,275.697357 436.760315,275.626801 
	C444.301361,274.775360 442.966553,269.145355 442.990875,264.284332 
	C443.004608,261.539307 444.182404,260.335144 446.660156,258.712280 
	C451.196014,255.741333 454.797821,251.343643 458.779144,247.530441 
	C458.880188,247.433670 458.813141,247.168884 458.910858,247.060089 
	C462.468903,243.099869 466.030884,239.143097 469.622467,235.213440 
	C469.804962,235.013763 470.252350,235.040070 470.580933,234.992462 
	C474.175354,234.471680 475.007599,232.016037 475.010773,228.856644 
	C475.013275,226.367294 474.307404,222.319061 475.457520,221.662262 
	C480.117310,219.001068 482.575806,214.401688 486.334503,211.037552 
	C490.441223,207.361893 494.582062,203.722763 498.610657,199.963364 
	C499.113220,199.494370 498.906647,198.337296 499.236816,197.591187 
	C499.556854,196.868179 500.085907,195.747528 500.624878,195.685547 
	C507.973663,194.840256 507.116791,189.418335 506.991577,184.438675 
	C506.916016,181.433243 507.682739,179.485046 511.116455,178.713577 
	C512.612122,178.377533 513.769104,176.227585 514.921082,174.775497 
	C515.701477,173.791901 516.096497,171.714157 516.849548,171.620636 
	C523.596985,170.782593 523.199646,165.956879 522.994934,161.188110 
	C522.855225,157.930817 523.262329,155.353745 527.369446,154.662003 
	C528.712952,154.435730 529.748230,152.316040 530.902527,151.042419 
	C534.477905,147.097702 538.036438,143.137619 541.630188,139.209717 
	C541.812439,139.010529 542.373474,139.167984 542.571289,138.971359 
	C544.083191,137.468292 545.541443,135.911484 547.031067,134.385727 
	C548.081177,133.310165 549.154297,132.257034 550.217102,131.193878 
	C551.156189,132.314163 552.787292,133.365448 552.907104,134.567429 
	C553.296692,138.474228 553.149719,142.436066 553.176758,146.376938 
	C553.194824,148.997803 553.045288,151.624527 553.173462,154.238708 
	C553.329529,157.420486 553.726135,160.589783 553.960876,163.768753 
	C554.048950,164.961929 553.975159,166.167053 553.975159,167.366714 
	C554.400208,167.466370 554.825256,167.566010 555.250305,167.665665 
	C555.825073,165.782745 556.399902,163.899826 556.986694,162.007751 
	C556.998596,161.998581 557.016785,161.974503 557.305542,161.926758 
	C558.317200,161.592728 559.040100,161.306427 559.920044,161.384079 
	C560.714355,163.979858 561.393005,166.200790 561.982117,168.445221 
	C566.330994,185.013397 571.841309,200.949600 584.109680,213.712357 
	C594.272705,224.284897 606.131592,231.089325 621.000000,232.000000 
M360.554718,380.524475 
	C359.025879,381.732605 357.497040,382.940765 355.245392,384.720062 
	C361.632263,386.282043 362.206573,385.722748 360.554718,380.524475 
M561.278625,174.162018 
	C561.111267,174.041473 560.943909,173.920929 560.776550,173.800400 
	C560.882324,173.976974 560.988037,174.153549 561.278625,174.162018 
M375.837830,377.279724 
	C375.958496,377.112061 376.079163,376.944397 376.199829,376.776764 
	C376.023041,376.882721 375.846252,376.988678 375.837830,377.279724 
M371.720215,376.837982 
	C371.887848,376.958588 372.055450,377.079193 372.223083,377.199799 
	C372.117157,377.023102 372.011230,376.846405 371.720215,376.837982 
M351.949158,381.571228 
	C351.949158,381.571228 352.103088,381.468201 352.103088,381.468201 
	C352.103088,381.468201 351.910309,381.476013 351.949158,381.571228 
z"/>
<path fill="#FEFEFF" opacity="1.000000" stroke="none" 
	d="
M621.000000,231.531342 
	C606.131592,231.089325 594.272705,224.284897 584.109680,213.712357 
	C571.841309,200.949600 566.330994,185.013397 561.982117,168.445221 
	C561.393005,166.200790 560.714355,163.979858 559.941711,160.990707 
	C557.381653,141.509949 554.957092,122.786514 552.617676,103.642006 
	C552.577698,102.091858 552.452454,100.962799 552.451172,99.519585 
	C552.431213,98.332817 552.287292,97.460197 552.239319,96.153625 
	C552.161072,82.165375 551.986877,68.611084 551.841309,54.667294 
	C549.623962,47.747940 547.378052,41.218086 545.141724,34.419785 
	C544.866943,33.732826 544.582458,33.314316 544.222900,32.604729 
	C543.784058,31.856617 543.420288,31.399580 543.050049,30.933727 
	C543.043518,30.924915 543.059082,30.908361 542.996460,30.570930 
	C537.410828,21.321548 530.475708,13.880234 520.945190,9.069138 
	C520.934814,9.007072 520.809998,9.023433 520.621338,8.743834 
	C513.621765,5.976153 506.810883,3.488073 500.000000,0.999996 
	C540.283142,1.000000 580.566345,1.000000 621.000000,1.000000 
	C621.000000,77.687500 621.000000,154.375092 621.000000,231.531342 
z"/>
<path fill="#FEFEFF" opacity="1.000000" stroke="none" 
	d="
M1.000000,264.468658 
	C20.815184,265.191681 34.719860,275.872925 44.935280,291.957672 
	C57.300220,311.426941 62.662727,333.343933 65.810387,355.834961 
	C67.441811,367.492035 68.106926,379.284302 69.239349,391.889038 
	C69.169670,405.044830 68.748535,417.334503 69.034790,429.607727 
	C69.653481,456.134674 80.370804,476.776245 105.089684,489.292908 
	C110.560692,491.369507 115.780350,493.184753 121.000000,495.000000 
	C81.049911,495.000000 41.099815,495.000000 1.000000,495.000000 
	C1.000000,418.312500 1.000000,341.624908 1.000000,264.468658 
z"/>
<path fill="#FEFEFF" opacity="1.000000" stroke="none" 
	d="
M568.986755,305.009186 
	C571.650513,300.637939 574.225281,296.209534 576.993896,291.905701 
	C587.164673,276.095154 600.958557,265.808228 620.578003,263.933594 
	C621.000000,340.904480 621.000000,417.808929 621.000000,495.000000 
	C580.646240,495.000000 540.291748,495.000000 499.662781,494.660034 
	C503.579926,493.324707 507.884064,492.660034 511.945007,491.279877 
	C536.703247,482.864960 553.532593,457.312378 552.643738,429.383942 
	C551.870300,405.082886 552.235352,380.828613 556.085571,356.784546 
	C557.934631,345.237671 560.761292,333.847351 563.377747,322.096497 
	C565.402466,316.207642 567.194580,310.608429 568.986755,305.009186 
z"/>
<path fill="#FEFEFF" opacity="1.000000" stroke="none" 
	d="
M68.110863,124.030357 
	C65.575943,143.629303 62.753181,163.175400 55.771133,181.814941 
	C49.440102,198.716507 41.052208,214.125580 25.185429,224.234543 
	C17.993685,228.816528 10.143238,231.061890 1.416617,232.071289 
	C1.000000,155.095245 1.000000,78.190483 1.000000,1.000000 
	C41.687115,1.000000 82.374901,1.000000 123.474274,1.216522 
	C123.885872,1.433044 123.793205,1.871185 123.476974,2.009779 
	C116.713417,3.851671 109.704964,4.467444 103.919113,7.452753 
	C82.621529,18.441601 70.748428,36.429256 69.415771,60.317760 
	C68.233337,81.513596 68.489647,102.789688 68.110863,124.030357 
z"/>
<path fill="#6D11F4" opacity="1.000000" stroke="none" 
	d="
M563.145203,322.386108 
	C560.761292,333.847351 557.934631,345.237671 556.085571,356.784546 
	C552.235352,380.828613 551.870300,405.082886 552.643738,429.383942 
	C553.532593,457.312378 536.703247,482.864960 511.945007,491.279877 
	C507.884064,492.660034 503.579926,493.324707 499.194092,494.660034 
	C498.555542,495.000000 498.111115,495.000000 497.024109,494.750336 
	C493.910278,494.320740 491.439026,494.140808 488.614716,493.755585 
	C486.122681,493.366364 483.983795,493.023895 481.844604,493.022034 
	C442.228546,492.987183 402.612427,492.992981 362.996338,492.990234 
	C361.916626,489.693878 363.542023,489.009888 366.489838,488.965576 
	C383.275208,488.713135 400.057983,488.290253 416.843292,488.033417 
	C420.671326,487.974854 424.288483,488.072388 425.367157,483.194122 
	C425.538025,482.421448 426.628357,481.411255 427.416412,481.286346 
	C433.138367,480.379669 433.287048,476.314423 433.006317,471.905731 
	C432.781647,468.376892 433.763000,466.385193 437.388428,464.202484 
	C442.012024,461.418854 445.200317,456.247559 448.986572,452.086609 
	C449.190186,451.862823 449.104858,451.355072 449.318817,451.164825 
	C453.270905,447.650757 457.236816,444.151855 461.229187,440.683563 
	C462.088348,439.937134 463.614594,439.493347 463.885529,438.617096 
	C464.946014,435.186493 467.042084,433.384125 470.324585,431.818329 
	C471.939972,431.047729 472.704712,427.371490 472.871704,424.942596 
	C473.141266,421.022003 473.382812,418.421234 477.764801,415.934998 
	C481.611145,413.752716 484.543457,409.148621 488.114746,405.793121 
	C489.552002,404.442688 488.976807,400.739075 488.963806,398.108185 
	C488.946198,394.540894 490.437988,392.832336 494.048004,392.999542 
	C495.542145,393.068756 497.043182,392.981842 498.541107,392.977875 
	C502.851654,392.966492 505.071991,390.791595 504.953674,386.499939 
	C504.822845,381.755096 504.362396,376.993744 510.795044,375.775085 
	C511.504364,375.640686 512.075439,374.335724 512.539062,373.480652 
	C512.928040,372.763123 512.823792,371.643738 513.354797,371.159210 
	C517.261658,367.594666 520.986145,363.713959 525.349976,360.806213 
	C528.412292,358.765778 529.061340,356.385315 528.985291,353.285583 
	C528.885376,349.215759 529.103821,346.325562 533.950867,343.884888 
	C538.491211,341.598663 541.412415,336.087952 545.026611,331.979004 
	C545.761841,331.143188 546.315247,329.580170 547.114014,329.464111 
	C550.902283,328.913757 552.531616,327.047852 553.762695,323.298950 
	C554.256165,321.796204 559.115601,321.727051 562.495056,321.351868 
	C563.049988,321.927582 563.097595,322.156830 563.145203,322.386108 
M558.661438,332.714844 
	C558.582703,332.544281 558.503906,332.373749 558.425171,332.203186 
	C558.437134,332.402405 558.449036,332.601624 558.661438,332.714844 
z"/>
<path fill="#A441FF" opacity="1.000000" stroke="none" 
	d="
M123.793205,1.871186 
	C123.793205,1.871185 123.885872,1.433044 123.942932,1.216522 
	C248.022644,1.000000 372.045288,1.000000 496.214966,1.235438 
	C493.903961,1.668510 491.445953,1.866146 488.521179,2.036925 
	C418.904724,2.008018 349.755035,1.989391 280.605316,2.009442 
	C230.118332,2.024081 179.631363,2.089655 128.698059,2.114761 
	C126.765549,2.021728 125.279381,1.946457 123.793205,1.871186 
z"/>
<path fill="#9640FF" opacity="1.000000" stroke="none" 
	d="
M488.967743,493.960876 
	C491.439026,494.140808 493.910278,494.320740 496.690796,494.750336 
	C374.645782,495.000000 252.291550,495.000000 129.807938,494.762146 
	C131.485092,494.350311 133.290573,494.038452 135.098312,494.024872 
	C146.407928,493.940125 157.718048,493.921967 169.493408,493.909485 
	C183.604370,493.952789 197.249924,493.982300 210.895493,493.981812 
	C303.586243,493.978363 396.277008,493.968597 488.967743,493.960876 
z"/>
<path fill="#7717F2" opacity="1.000000" stroke="none" 
	d="
M488.987946,2.063780 
	C491.445953,1.866146 493.903961,1.668510 496.680969,1.235438 
	C497.750000,1.000000 498.500000,1.000000 499.625000,0.999996 
	C506.810883,3.488073 513.621765,5.976153 520.215698,8.730298 
	C516.335205,7.999403 512.671631,7.002444 509.058167,5.975533 
	C509.108276,5.945581 508.994385,5.991928 508.665802,6.050263 
	C505.017059,6.294247 501.651184,6.901525 498.389496,6.547976 
	C495.070892,6.188266 490.980408,7.113841 488.987976,2.755656 
	C488.988403,2.525031 488.987946,2.063779 488.987946,2.063780 
M499.126190,3.123493 
	C498.871338,3.251213 498.616516,3.378933 498.361664,3.506639 
	C498.469208,3.608348 498.643280,3.814761 498.673798,3.795367 
	C498.938934,3.626778 499.178345,3.417708 499.126190,3.123493 
z"/>
<path fill="#7717F2" opacity="1.000000" stroke="none" 
	d="
M169.028000,493.881775 
	C157.718048,493.921967 146.407928,493.940125 135.098312,494.024872 
	C133.290573,494.038452 131.485092,494.350311 129.339279,494.762146 
	C126.629440,495.000000 124.258888,495.000000 121.444168,495.000000 
	C115.780350,493.184753 110.560692,491.369507 105.492622,489.295715 
	C111.975281,490.554535 119.082031,488.269897 124.770081,492.939117 
	C139.514801,492.963470 154.259506,492.987823 169.008652,493.229553 
	C169.013077,493.446930 169.028000,493.881775 169.028000,493.881775 
M117.462105,491.270844 
	C117.120392,491.379669 116.778679,491.488525 116.436966,491.597412 
	C116.822884,491.579651 117.208794,491.561890 117.462105,491.270844 
z"/>
<path fill="#FDFCFE" opacity="1.000000" stroke="none" 
	d="
M416.538116,304.828796 
	C416.455566,305.652191 416.373016,306.475555 416.251740,308.119751 
	C416.144287,310.960449 416.075592,312.980286 416.006866,315.000153 
	C415.823730,315.695984 415.640625,316.391785 415.296997,317.784912 
	C414.360107,322.198639 413.583740,325.915070 412.807373,329.631500 
	C411.133667,333.184326 409.459991,336.737183 407.442932,340.859802 
	C400.572723,353.108124 390.655548,361.208679 379.289948,367.780640 
	C378.966766,367.749939 378.662231,367.811493 377.847626,368.171051 
	C371.140686,370.702087 364.962463,373.027405 358.784241,375.352722 
	C356.757812,375.818726 354.731415,376.284698 351.921295,376.850616 
	C343.753632,377.737396 336.369659,378.524231 328.551941,379.258484 
	C326.090790,379.315857 324.063416,379.425812 321.635620,379.418762 
	C314.220032,379.386230 307.204926,379.470642 299.720367,379.447388 
	C295.089569,379.414642 290.928162,379.489594 286.422211,379.437622 
	C285.114502,379.394257 284.151367,379.477783 282.724976,379.452637 
	C279.096985,379.417145 275.932312,379.490295 272.329010,379.435883 
	C264.321259,379.391937 256.752106,379.475616 248.765106,379.451691 
	C245.582520,379.408142 242.817795,379.472198 239.629089,379.414917 
	C237.453568,379.375702 235.702042,379.457855 233.509308,379.439575 
	C230.342072,379.412598 227.615997,379.486084 224.465775,379.436981 
	C221.418274,379.094116 218.794937,378.873779 216.209290,378.475128 
	C216.246964,378.296814 216.021255,378.010620 216.095062,377.546021 
	C216.186584,292.048828 216.205139,207.016266 216.211655,121.983704 
	C216.211716,120.991791 216.055756,119.999855 215.972641,119.007935 
	C216.228119,118.401009 216.483612,117.794075 217.346008,116.932938 
	C231.227402,116.688286 244.501938,116.729073 257.776337,116.700333 
	C279.507141,116.653290 301.237885,116.561028 323.405365,116.615143 
	C326.562164,116.789848 329.282257,116.837257 332.415710,116.963158 
	C340.861969,118.431488 348.894897,119.821327 356.913025,121.168999 
	C356.898254,121.126823 356.815186,121.159767 357.077271,121.398888 
	C359.836914,122.502434 362.334442,123.366859 364.871643,124.149780 
	C364.911316,124.068275 364.799225,124.210762 365.022064,124.466835 
	C369.311829,126.982155 373.378784,129.241409 377.458099,131.543655 
	C377.470490,131.586655 377.559723,131.579758 377.758118,131.814911 
	C379.447632,133.153381 380.938812,134.256668 382.431152,135.417297 
	C382.432373,135.474625 382.546082,135.489319 382.702576,135.718475 
	C383.591736,136.517914 384.324402,137.088181 385.232727,137.955734 
	C387.483368,140.562744 389.558319,142.872467 391.739868,145.517792 
	C394.504303,150.796707 397.162170,155.740021 399.799072,160.920807 
	C399.820618,161.483170 399.947266,161.771072 400.134613,162.318756 
	C400.371155,163.136963 400.631073,163.658386 400.893799,164.148697 
	C400.896637,164.117599 400.856689,164.167007 400.857788,164.568558 
	C400.940033,165.463135 400.989349,165.963898 401.106964,166.448059 
	C408.955231,198.751526 391.363586,229.016479 359.333496,238.349960 
	C357.903473,238.766663 356.543365,239.423325 353.845520,240.478836 
	C357.782867,241.173645 360.235931,241.519897 362.649780,242.045959 
	C384.921875,246.899857 402.228455,258.246918 411.370972,279.910828 
	C413.229401,284.314575 414.219208,289.084900 415.609436,293.686249 
	C415.720764,295.217377 415.832062,296.748474 415.977600,299.067139 
	C416.187286,301.512726 416.362701,303.170776 416.538116,304.828796 
M258.361053,153.811417 
	C258.425964,177.524017 258.490875,201.236633 258.316833,225.786896 
	C258.083923,229.210739 260.682800,228.373077 262.460205,228.376495 
	C277.452881,228.405334 292.446259,228.414291 307.438416,228.299240 
	C318.181183,228.216797 328.634277,226.521805 338.615051,222.302750 
	C362.103180,212.373947 364.658997,188.628906 358.191284,172.698563 
	C352.035126,157.535477 338.840912,151.732086 323.908325,150.941284 
	C302.974365,149.832642 281.956757,150.294922 260.974579,150.137360 
	C260.261749,150.132004 259.544678,150.689560 258.639160,151.106491 
	C258.639160,151.106491 258.749359,151.303833 258.381287,151.758102 
	C258.440002,152.131210 258.498749,152.504318 258.361053,153.811417 
M258.412415,260.557739 
	C258.448395,261.999512 258.484375,263.441284 258.338257,265.818970 
	C258.325989,291.123627 258.306641,316.428253 258.324921,341.732880 
	C258.325714,342.855652 258.669434,343.978119 259.427399,345.750305 
	C280.062866,345.744232 300.707764,346.094574 321.329041,345.550751 
	C329.205475,345.343018 337.245422,343.830719 344.829620,341.610565 
	C360.527039,337.015381 370.725922,326.567230 372.870605,310.011993 
	C375.063416,293.085541 371.263489,278.029999 355.433655,268.557922 
	C345.516785,262.624023 334.474396,260.344177 322.067383,259.916656 
	C302.666626,259.802856 283.265930,259.675110 263.865021,259.600647 
	C262.241913,259.594421 260.617462,259.946747 258.412415,260.557739 
z"/>
<path fill="#7E11FA" opacity="1.000000" stroke="none" 
	d="
M233.950500,379.540039 
	C235.702042,379.457855 237.453568,379.375702 239.788666,379.655945 
	C241.246597,380.351868 242.120956,380.685425 242.819977,381.350372 
	C240.021210,382.421936 236.524063,382.363708 234.961716,384.073456 
	C231.985596,387.330322 226.220566,387.656738 225.413956,393.200317 
	C225.317856,393.860870 223.543732,394.606873 222.479691,394.730530 
	C220.010330,395.017517 217.364685,394.493988 215.052414,395.180786 
	C213.480484,395.647675 211.788895,397.388458 211.176224,398.959503 
	C210.497253,400.700439 211.413361,403.027985 210.851074,404.859467 
	C210.229691,406.883484 209.122330,409.626343 207.506409,410.282501 
	C204.782379,411.388611 202.922348,412.410095 202.443665,415.509888 
	C202.294464,416.476074 201.167831,417.933105 200.333679,418.048859 
	C194.412170,418.870667 194.765244,423.061554 194.983429,427.321991 
	C195.180511,431.170044 193.679337,433.248413 189.899185,435.291534 
	C185.642395,437.592255 182.588776,442.120483 179.022446,445.690430 
	C178.924362,445.788666 179.003922,446.060760 178.907074,446.164276 
	C175.009628,450.332031 171.681137,455.428314 166.993713,458.323608 
	C163.787903,460.303802 162.962418,461.892670 162.957764,465.082367 
	C162.952103,468.952911 163.673309,472.812347 158.569611,475.080048 
	C155.452728,476.464935 153.357147,480.137695 150.772812,482.753174 
	C150.576202,482.952179 150.063950,482.817871 149.828186,483.003387 
	C149.006226,483.650116 148.241379,484.369446 147.454803,485.061127 
	C148.471039,485.694092 149.447617,486.796814 150.509750,486.886505 
	C160.063232,487.693359 169.626450,488.417847 179.198959,488.946777 
	C182.166046,489.110718 184.508392,489.564331 184.532593,492.996857 
	C179.045273,493.003937 174.024750,493.008087 169.004227,493.012207 
	C154.259506,492.987823 139.514801,492.963470 124.770081,492.939117 
	C119.082031,488.269897 111.975281,490.554535 105.241272,489.034332 
	C80.370804,476.776245 69.653481,456.134674 69.034790,429.607727 
	C68.748535,417.334503 69.169670,405.044830 69.345673,392.339386 
	C69.734810,391.163971 70.048370,390.411774 70.361938,389.659607 
	C70.725426,389.650116 71.088913,389.640625 71.452400,389.631134 
	C71.969978,399.478516 72.484047,409.326080 73.007515,419.173157 
	C73.143539,421.731995 72.362358,424.841858 76.555984,424.950531 
	C80.613434,425.055634 81.077454,422.418060 81.001785,419.297821 
	C80.969505,417.966919 81.058853,416.631897 80.998001,415.303070 
	C80.795593,410.883789 82.867386,408.787323 87.292542,409.002045 
	C88.122810,409.042358 88.956993,409.005768 89.789322,408.999176 
	C96.732109,408.944336 96.947060,408.722076 96.999878,401.557281 
	C97.055756,393.976868 97.071449,393.958649 104.513512,392.814819 
	C111.859795,391.685669 112.028130,391.702759 112.827194,383.827240 
	C113.199554,380.157288 113.892342,377.553101 118.146881,376.623871 
	C119.395187,376.351227 120.712036,373.460480 120.865761,371.672333 
	C121.283440,366.814301 119.834145,361.369263 127.232025,360.185486 
	C128.100647,360.046478 128.857178,356.505890 128.911255,354.521606 
	C129.036346,349.932404 128.408524,345.195129 134.973068,344.546814 
	C135.582809,344.486603 136.526260,343.488983 136.586823,342.856903 
	C137.147812,337.001312 141.189423,336.895905 145.648148,336.959076 
	C152.712967,337.059174 152.967529,336.700287 152.997482,329.697205 
	C153.010300,326.700684 153.083572,323.701263 152.980225,320.708282 
	C152.842712,316.726349 153.289352,313.360260 158.317703,312.710052 
	C159.269928,312.586884 160.635437,311.078644 160.778915,310.063690 
	C161.453873,305.288422 164.688293,304.862701 168.468689,304.991272 
	C172.658401,305.133759 176.990784,305.694641 177.732376,299.542633 
	C177.852509,298.545868 180.406570,297.992371 181.553909,296.929840 
	C182.841049,295.737823 184.531693,294.272705 184.680099,292.789673 
	C184.793808,291.653381 182.837067,290.254761 181.706253,289.062927 
	C180.269104,287.548248 178.736053,286.124603 177.244370,284.661713 
	C179.140839,283.444916 180.915863,281.913788 182.975082,281.118256 
	C184.426147,280.557617 186.263809,281.020447 187.927643,280.978058 
	C188.755249,280.956970 190.091522,281.117950 190.327713,280.702271 
	C192.918152,276.143402 198.195847,273.823425 200.588303,269.681305 
	C202.661041,266.092712 204.539948,264.828217 208.581085,265.471680 
	C208.998627,302.973969 208.998627,340.007782 208.998627,377.041626 
	C209.333466,377.042145 209.668320,377.042664 210.003159,377.043152 
	C210.003159,350.361786 210.003159,323.680389 210.213654,297.354370 
	C210.616302,299.840240 210.971420,301.970428 210.975449,304.101257 
	C211.016800,326.005493 210.948914,347.910217 211.087311,369.813660 
	C211.100342,371.874023 212.312729,373.926849 213.123444,376.169800 
	C213.500916,376.593719 213.746475,376.803741 214.252350,376.987305 
	C214.489380,376.988068 214.963821,376.984436 215.122772,377.172485 
	C215.514069,377.593292 215.760574,377.809998 216.021255,378.010620 
	C216.021255,378.010620 216.246964,378.296814 216.125900,378.716309 
	C216.334244,379.757935 216.663651,380.380035 217.460724,381.001221 
	C219.708054,380.999756 221.504013,381.152924 223.264008,380.966522 
	C226.836456,380.588226 230.389481,380.026245 233.950500,379.540039 
M228.052933,383.967102 
	C228.316284,383.741974 228.579636,383.516815 228.842987,383.291687 
	C228.700806,383.225159 228.558838,383.101044 228.416443,383.100555 
	C225.295425,383.089447 222.174347,383.092102 219.053268,383.092102 
	C219.059509,383.392059 219.065765,383.692047 219.072006,383.992004 
	C221.842529,383.992004 224.613068,383.992004 228.052933,383.967102 
M212.474380,381.500732 
	C212.474380,381.500732 212.513031,381.486908 212.474380,381.500732 
z"/>
<path fill="#8211FB" opacity="1.000000" stroke="none" 
	d="
M266.016388,114.031647 
	C266.357239,110.450371 266.786652,106.939911 271.458282,106.453522 
	C271.759491,106.422150 272.123413,106.204384 272.308075,105.959938 
	C275.595245,101.608406 278.819214,97.208366 282.156128,92.895653 
	C282.993195,91.813812 284.057648,90.410538 285.223877,90.174583 
	C288.643372,89.482727 289.768799,87.522224 290.083832,84.262016 
	C290.496368,79.993591 290.020569,75.034142 296.199158,73.914230 
	C297.172668,73.737770 298.392914,72.074257 298.577850,70.947174 
	C299.067322,67.963470 300.393219,66.179558 303.398102,65.392975 
	C304.310028,65.154259 305.470734,63.854126 305.581726,62.927998 
	C305.986542,59.549786 308.898712,59.129097 310.777832,57.374424 
	C314.353943,54.035103 317.089203,49.780930 321.469299,47.132713 
	C322.015686,46.802357 322.001282,45.253033 321.954681,44.282551 
	C321.723511,39.469814 322.115509,36.092659 327.914673,33.594013 
	C331.492859,32.052326 335.356293,27.486872 337.648712,23.837238 
	C339.674225,20.612612 338.362305,14.972684 337.623444,10.549591 
	C337.433075,9.409923 333.917389,8.414033 331.816925,8.097342 
	C328.273743,7.563141 324.640778,7.624285 321.045593,7.435056 
	C321.078613,6.890059 321.111603,6.345063 321.144623,5.800066 
	C329.263733,5.800066 337.383209,5.762784 345.501526,5.843535 
	C346.614990,5.854610 347.746796,6.799470 348.829071,6.723898 
	C356.897522,6.160491 364.957367,5.467829 373.013367,4.742755 
	C373.578186,4.691916 374.090485,4.057301 375.279907,3.349924 
	C397.618347,3.007849 419.304138,3.010000 440.809753,3.350140 
	C434.694397,5.114895 428.814606,6.896911 422.803131,7.835515 
	C419.182678,8.400793 418.114471,9.925013 417.815277,13.277137 
	C417.680267,14.789812 416.246613,17.196659 415.068695,17.417261 
	C411.497253,18.086109 411.099640,21.141670 409.236450,23.059679 
	C405.920654,26.473003 402.495361,29.842779 399.092987,33.160324 
	C397.044464,35.157730 395.104980,37.072392 393.135559,39.203995 
	C390.034454,42.560493 386.698883,47.218510 383.422699,48.758179 
	C377.730347,51.433350 377.875946,54.839756 378.007996,59.292168 
	C378.112671,62.822594 376.653534,64.469086 373.317017,66.360893 
	C368.965057,68.828453 365.225830,72.976227 362.326630,77.164932 
	C360.771576,79.411667 359.159790,80.700371 357.182678,82.349495 
	C353.442719,85.469086 351.112427,90.060120 346.483337,92.671028 
	C345.262604,93.359550 346.428070,97.757393 345.870178,100.315018 
	C345.458496,102.202591 344.231201,105.217697 343.015350,105.401443 
	C337.354706,106.256943 337.917358,110.137199 337.549194,113.992798 
	C334.402008,114.001022 331.704407,114.006538 328.708740,113.812790 
	C326.603607,113.746506 324.796631,113.879478 322.659668,114.014122 
	C321.889740,114.016472 321.449768,114.017151 320.808807,113.889893 
	C320.072144,114.170532 319.536530,114.579086 318.532166,114.990143 
	C300.714447,114.672310 283.365417,114.351974 266.016388,114.031647 
z"/>
<path fill="#8F13FC" opacity="1.000000" stroke="none" 
	d="
M123.476974,2.009779 
	C125.279381,1.946457 126.765549,2.021728 129.043091,2.304426 
	C131.806351,2.671440 133.778000,2.965933 135.750214,2.969745 
	C155.500687,3.007922 175.251282,2.998291 195.001831,3.002130 
	C193.104645,4.330002 191.357925,6.448133 189.283127,6.843121 
	C181.962967,8.236705 174.504745,8.896332 167.165558,10.207590 
	C165.940704,10.426431 164.339218,12.399560 164.141083,13.743322 
	C163.643539,17.117435 162.374771,19.194355 158.885605,20.109905 
	C157.676804,20.427094 156.885834,22.270664 155.863174,23.379375 
	C154.486481,24.871901 153.295578,27.174566 151.623123,27.619652 
	C148.358047,28.488577 147.905182,30.394941 147.990707,33.124176 
	C148.149292,38.185516 148.717636,43.496140 141.530701,44.460804 
	C140.981827,44.534481 140.486572,45.625317 140.130676,46.326717 
	C139.837814,46.903885 140.001297,47.819515 139.598907,48.217621 
	C135.647583,52.126957 131.973801,56.470310 127.461868,59.593407 
	C125.274315,61.107594 123.935921,62.035439 123.983818,64.683495 
	C124.076660,69.814957 124.990829,75.447617 117.478958,76.488075 
	C116.938728,76.562897 116.463455,77.675102 116.114052,78.382111 
	C115.826492,78.963966 115.984596,79.884758 115.579102,80.271294 
	C111.452911,84.204521 107.274483,88.084213 103.048515,91.910233 
	C102.357925,92.535477 100.734451,92.698349 100.613419,93.292984 
	C99.794289,97.317245 97.713638,99.687393 93.548370,100.641037 
	C92.713715,100.832123 92.061798,103.745834 92.084816,105.393585 
	C92.150803,110.118210 91.071289,113.940781 86.214951,115.869591 
	C85.398834,116.193733 84.371468,117.134064 84.264351,117.904114 
	C83.682045,122.090317 81.356522,123.893295 77.224251,124.156113 
	C74.212875,124.347633 73.850433,126.390480 74.941048,128.835892 
	C76.212746,131.687317 76.295006,134.253036 72.800880,136.771622 
	C71.285263,132.523346 69.880096,128.584671 68.292892,124.338173 
	C68.489647,102.789688 68.233337,81.513596 69.415771,60.317760 
	C70.748428,36.429256 82.621529,18.441601 103.919113,7.452753 
	C109.704964,4.467444 116.713417,3.851671 123.476974,2.009779 
M123.695488,4.078809 
	C123.222801,4.505949 122.750122,4.933088 122.277435,5.360227 
	C123.434654,5.354767 124.591866,5.349308 125.749084,5.343846 
	C125.265450,4.921939 124.781815,4.500031 123.695488,4.078809 
M72.803978,102.976997 
	C72.803978,101.906113 72.803978,100.835220 72.803978,99.764336 
	C72.559776,99.764107 72.315575,99.763870 72.071373,99.763641 
	C72.193771,100.916351 72.316170,102.069061 72.803978,102.976997 
M72.589775,73.938522 
	C72.589775,73.938522 72.420326,73.982834 72.420326,73.982834 
	C72.420326,73.982834 72.586273,74.039734 72.589775,73.938522 
z"/>
<path fill="#7E14EB" opacity="1.000000" stroke="none" 
	d="
M195.470276,2.998767 
	C175.251282,2.998291 155.500687,3.007922 135.750214,2.969745 
	C133.778000,2.965933 131.806351,2.671440 129.489410,2.322189 
	C179.631363,2.089655 230.118332,2.024081 280.605316,2.009442 
	C349.755035,1.989391 418.904724,2.008018 488.521179,2.036923 
	C488.987946,2.063779 488.988403,2.525031 488.520721,2.759289 
	C472.365326,2.999748 456.677612,3.005949 440.989899,3.012149 
	C419.304138,3.010000 397.618347,3.007849 375.463257,3.010878 
	C315.308838,3.009172 255.623795,3.002288 195.470276,2.998767 
z"/>
<path fill="#7717F2" opacity="1.000000" stroke="none" 
	d="
M214.015305,376.986572 
	C213.746475,376.803741 213.500916,376.593719 213.129822,375.703308 
	C212.986191,322.032867 212.991379,269.015533 212.998810,215.529724 
	C212.992371,183.040588 212.983704,151.019897 212.984558,118.669998 
	C213.005951,117.902115 213.017792,117.463440 213.029633,117.024773 
	C213.276825,117.207336 213.504456,117.411674 213.852570,118.283615 
	C214.001740,167.616440 214.010895,216.303406 214.014832,265.459991 
	C214.011520,302.948578 214.013412,339.967590 214.015305,376.986572 
z"/>
<path fill="#7A01F4" opacity="1.000000" stroke="none" 
	d="
M216.095062,377.546021 
	C215.760574,377.809998 215.514069,377.593292 215.130066,376.705566 
	C214.971375,339.030548 214.964340,302.010468 214.964172,264.522339 
	C214.974060,215.697571 214.977097,167.340805 214.980118,118.984024 
	C214.980118,118.984024 215.476425,118.994316 215.724533,119.001129 
	C216.055756,119.999855 216.211716,120.991791 216.211655,121.983704 
	C216.205139,207.016266 216.186584,292.048828 216.095062,377.546021 
z"/>
<path fill="#7E14EB" opacity="1.000000" stroke="none" 
	d="
M210.003159,296.998993 
	C210.003159,323.680389 210.003159,350.361786 210.003159,377.043152 
	C209.668320,377.042664 209.333466,377.042145 208.998627,377.041626 
	C208.998627,340.007782 208.998627,302.973969 208.995651,265.471893 
	C208.999298,219.379791 208.998276,173.755905 209.036530,128.132050 
	C209.038330,125.993187 209.390045,123.854614 209.789154,121.357971 
	C209.999512,121.000038 209.996216,121.006012 209.994278,121.473961 
	C209.994568,132.961258 209.996780,143.980621 209.998108,155.250015 
	C209.997925,155.666748 209.998657,155.833450 209.997803,156.468811 
	C209.997711,171.291489 209.999176,185.645508 209.998444,200.468201 
	C209.997452,219.957932 209.998672,238.978958 209.998199,258.437500 
	C209.997467,260.916656 209.998459,262.958344 209.998032,265.444092 
	C209.997757,268.258392 209.998871,270.628601 209.998306,273.465759 
	C209.998108,278.955414 209.999603,283.978027 209.999756,289.444763 
	C210.000000,292.258881 210.001587,294.628937 210.003159,296.998993 
z"/>
<path fill="#7A01F4" opacity="1.000000" stroke="none" 
	d="
M265.628235,114.184647 
	C283.365417,114.351974 300.714447,114.672310 318.809265,114.929230 
	C320.040009,114.583153 320.524933,114.300499 321.009827,114.017838 
	C321.449768,114.017151 321.889740,114.016472 322.667297,114.332710 
	C323.019714,115.073578 323.034485,115.497528 323.011505,116.060562 
	C322.973724,116.199646 322.968628,116.487846 322.968628,116.487839 
	C301.237885,116.561028 279.507141,116.653290 257.776337,116.700333 
	C244.501938,116.729073 231.227402,116.688286 217.486877,116.634705 
	C218.832428,116.060951 220.639084,115.092865 222.456421,115.072365 
	C234.582703,114.935555 246.711456,115.032753 258.838959,114.970947 
	C260.973663,114.960068 263.106415,114.558693 265.628235,114.184647 
z"/>
<path fill="#8F13FC" opacity="1.000000" stroke="none" 
	d="
M214.835022,118.802467 
	C214.977097,167.340805 214.974060,215.697571 214.730103,264.523315 
	C214.489166,264.992249 214.020050,264.990387 214.020050,264.990387 
	C214.010895,216.303406 214.001740,167.616440 214.000000,118.459770 
	C214.255341,118.178253 214.482834,118.388527 214.835022,118.802467 
z"/>
<path fill="#8F13FC" opacity="1.000000" stroke="none" 
	d="
M68.156273,135.256256 
	C68.270828,134.327347 68.416130,133.738342 68.561432,133.149323 
	C68.897552,133.120087 69.233681,133.090851 69.569801,133.061615 
	C70.093262,135.774033 70.616714,138.486435 71.140167,141.198853 
	C70.664619,141.306732 70.189072,141.414627 69.713524,141.522507 
	C69.204681,139.547058 68.695847,137.571609 68.156273,135.256256 
z"/>
<path fill="#8211FB" opacity="1.000000" stroke="none" 
	d="
M212.670258,117.066177 
	C213.017792,117.463440 213.005951,117.902115 212.696594,118.760559 
	C211.598145,119.788902 210.797180,120.397461 209.996216,121.006012 
	C209.996216,121.006012 209.999512,121.000038 209.997925,121.002289 
	C210.767868,119.705551 211.539383,118.406563 212.670258,117.066177 
z"/>
<path fill="#7811F8" opacity="1.000000" stroke="none" 
	d="
M415.857849,293.335815 
	C414.219208,289.084900 413.229401,284.314575 411.370972,279.910828 
	C402.228455,258.246918 384.921875,246.899857 362.649780,242.045959 
	C360.235931,241.519897 357.782867,241.173645 353.845520,240.478836 
	C356.543365,239.423325 357.903473,238.766663 359.333496,238.349960 
	C391.363586,229.016479 408.955231,198.751526 401.106964,166.448059 
	C400.989349,165.963898 400.940033,165.463135 401.176666,164.440796 
	C403.920776,161.970520 406.622894,161.953369 406.974213,165.220032 
	C407.453033,169.672195 406.681061,174.259201 406.424133,178.787201 
	C406.419647,178.865906 406.147339,178.929413 405.972168,178.951096 
	C405.944336,178.902176 406.000000,179.000000 406.002075,179.399078 
	C406.429810,181.548904 407.060272,183.282837 407.205902,185.056580 
	C407.296173,186.156143 407.000702,187.673538 406.273560,188.386169 
	C403.368225,191.233231 403.503418,193.305298 407.444092,196.246643 
	C407.144714,194.628372 406.900635,193.309052 406.656555,191.989731 
	C407.210999,191.849564 407.765472,191.709396 408.319916,191.569229 
	C408.761108,194.018082 409.202271,196.466919 409.643433,198.915741 
	C407.766113,199.157730 405.888763,199.399704 402.830536,199.793900 
	C402.813263,199.818100 401.047791,201.238281 401.282501,202.134811 
	C402.593567,207.142670 401.041168,211.123978 396.889557,214.532822 
	C404.625366,216.267883 403.499725,215.326813 407.771667,210.216919 
	C410.963226,206.399384 414.540680,202.043808 418.924408,199.355606 
	C421.295471,197.901627 422.748108,197.000381 423.163239,194.161652 
	C423.840210,189.532486 423.067780,183.780823 430.131378,182.955460 
	C430.695251,182.889572 431.485901,181.765594 431.565277,181.064728 
	C431.935272,177.796753 435.367798,177.117722 436.521027,175.392883 
	C439.424591,171.049942 442.616547,167.446991 446.616211,164.132233 
	C448.060577,162.935242 447.791016,159.423721 447.918427,156.948563 
	C448.066956,154.063431 449.702545,153.211136 451.963989,151.652863 
	C456.433472,148.573120 460.485321,144.509201 463.717377,140.121201 
	C466.778503,135.965286 472.234894,133.594681 473.093964,127.808273 
	C480.247070,127.047371 478.995239,121.156288 480.052002,116.590561 
	C480.394043,115.112656 481.175659,112.747749 482.103271,112.566681 
	C485.947205,111.816376 487.894928,109.878014 488.522919,106.032692 
	C488.657990,105.205597 490.484528,104.578140 491.605499,104.001816 
	C496.550415,101.459518 497.954559,95.095390 503.468872,93.027145 
	C504.091797,92.793510 503.885590,90.238197 503.988037,88.754227 
	C504.136658,86.601799 503.505981,82.992584 504.444458,82.533615 
	C509.237671,80.189468 511.549591,75.652672 514.936707,72.102615 
	C516.358337,70.612648 517.643982,68.993095 519.064026,67.501587 
	C520.521423,65.970886 521.995972,64.442215 523.589294,63.058105 
	C527.248291,59.879612 530.998291,56.805981 534.661682,53.632431 
	C534.954834,53.378479 534.881104,52.685066 534.950928,52.192047 
	C535.300354,49.724857 535.878296,47.261269 535.929138,44.787251 
	C536.005798,41.046749 537.913574,39.792416 541.339050,40.001427 
	C542.617554,40.079437 543.904785,40.014053 545.132080,40.014053 
	C545.132080,37.984909 545.132080,36.336575 545.132080,34.688236 
	C547.378052,41.218086 549.623962,47.747940 551.657837,55.028893 
	C551.308777,71.370461 551.157654,86.960884 551.098145,102.551666 
	C551.096252,103.053642 552.033203,103.559204 552.532471,104.063095 
	C554.957092,122.786514 557.381653,141.509949 559.784546,160.626755 
	C559.040100,161.306427 558.317200,161.592728 557.271362,161.879333 
	C556.948364,161.879639 556.974731,162.016907 556.974731,162.016907 
	C556.399902,163.899826 555.825073,165.782745 555.250305,167.665665 
	C554.825256,167.566010 554.400208,167.466370 553.975159,167.366714 
	C553.975159,166.167053 554.048950,164.961929 553.960876,163.768753 
	C553.726135,160.589783 553.329529,157.420486 553.173462,154.238708 
	C553.045288,151.624527 553.194824,148.997803 553.176758,146.376938 
	C553.149719,142.436066 553.296692,138.474228 552.907104,134.567429 
	C552.787292,133.365448 551.156189,132.314163 550.217102,131.193878 
	C549.154297,132.257034 548.081177,133.310165 547.031067,134.385727 
	C545.541443,135.911484 544.083191,137.468292 542.571289,138.971359 
	C542.373474,139.167984 541.812439,139.010529 541.630188,139.209717 
	C538.036438,143.137619 534.477905,147.097702 530.902527,151.042419 
	C529.748230,152.316040 528.712952,154.435730 527.369446,154.662003 
	C523.262329,155.353745 522.855225,157.930817 522.994934,161.188110 
	C523.199646,165.956879 523.596985,170.782593 516.849548,171.620636 
	C516.096497,171.714157 515.701477,173.791901 514.921082,174.775497 
	C513.769104,176.227585 512.612122,178.377533 511.116455,178.713577 
	C507.682739,179.485046 506.916016,181.433243 506.991577,184.438675 
	C507.116791,189.418335 507.973663,194.840256 500.624878,195.685547 
	C500.085907,195.747528 499.556854,196.868179 499.236816,197.591187 
	C498.906647,198.337296 499.113220,199.494370 498.610657,199.963364 
	C494.582062,203.722763 490.441223,207.361893 486.334503,211.037552 
	C482.575806,214.401688 480.117310,219.001068 475.457520,221.662262 
	C474.307404,222.319061 475.013275,226.367294 475.010773,228.856644 
	C475.007599,232.016037 474.175354,234.471680 470.580933,234.992462 
	C470.252350,235.040070 469.804962,235.013763 469.622467,235.213440 
	C466.030884,239.143097 462.468903,243.099869 458.910858,247.060089 
	C458.813141,247.168884 458.880188,247.433670 458.779144,247.530441 
	C454.797821,251.343643 451.196014,255.741333 446.660156,258.712280 
	C444.182404,260.335144 443.004608,261.539307 442.990875,264.284332 
	C442.966553,269.145355 444.301361,274.775360 436.760315,275.626801 
	C436.135681,275.697357 435.562531,277.069611 435.151215,277.926239 
	C434.799286,278.659180 434.845459,280.157135 434.491364,280.230194 
	C427.826569,281.605194 427.632843,291.820465 419.456146,291.188446 
	C418.392181,291.106201 417.225403,292.353790 415.857849,293.335815 
z"/>
<path fill="#7811F8" opacity="1.000000" stroke="none" 
	d="
M184.999390,492.993896 
	C184.508392,489.564331 182.166046,489.110718 179.198959,488.946777 
	C169.626450,488.417847 160.063232,487.693359 150.509750,486.886505 
	C149.447617,486.796814 148.471039,485.694092 147.454803,485.061127 
	C148.241379,484.369446 149.006226,483.650116 149.828186,483.003387 
	C150.063950,482.817871 150.576202,482.952179 150.772812,482.753174 
	C153.357147,480.137695 155.452728,476.464935 158.569611,475.080048 
	C163.673309,472.812347 162.952103,468.952911 162.957764,465.082367 
	C162.962418,461.892670 163.787903,460.303802 166.993713,458.323608 
	C171.681137,455.428314 175.009628,450.332031 178.907074,446.164276 
	C179.003922,446.060760 178.924362,445.788666 179.022446,445.690430 
	C182.588776,442.120483 185.642395,437.592255 189.899185,435.291534 
	C193.679337,433.248413 195.180511,431.170044 194.983429,427.321991 
	C194.765244,423.061554 194.412170,418.870667 200.333679,418.048859 
	C201.167831,417.933105 202.294464,416.476074 202.443665,415.509888 
	C202.922348,412.410095 204.782379,411.388611 207.506409,410.282501 
	C209.122330,409.626343 210.229691,406.883484 210.851074,404.859467 
	C211.413361,403.027985 210.497253,400.700439 211.176224,398.959503 
	C211.788895,397.388458 213.480484,395.647675 215.052414,395.180786 
	C217.364685,394.493988 220.010330,395.017517 222.479691,394.730530 
	C223.543732,394.606873 225.317856,393.860870 225.413956,393.200317 
	C226.220566,387.656738 231.985596,387.330322 234.961716,384.073456 
	C236.524063,382.363708 240.021210,382.421936 243.236023,381.344208 
	C245.612579,380.524200 247.397766,380.041748 249.182953,379.559265 
	C256.752106,379.475616 264.321259,379.391937 272.665924,379.703278 
	C276.690369,379.919281 279.939301,379.740295 283.188232,379.561310 
	C284.151367,379.477783 285.114502,379.394257 286.767395,379.708069 
	C291.701355,379.921967 295.945587,379.738495 300.189789,379.555054 
	C307.204926,379.470642 314.220032,379.386230 321.840942,379.676758 
	C324.626404,379.804810 326.806030,379.557922 328.985687,379.311035 
	C336.369659,378.524231 343.753632,377.737396 351.559631,376.995972 
	C351.407318,378.470428 350.832977,379.899475 349.764679,382.557556 
	C349.989624,382.668365 351.270325,383.299316 351.891754,383.605469 
	C349.798218,387.012390 348.042511,390.080139 346.048828,392.984497 
	C345.455994,393.848083 344.093109,394.140411 343.261627,394.892029 
	C341.722931,396.283081 340.312500,397.816467 338.861755,399.303375 
	C338.759735,399.407867 338.817688,399.699005 338.713165,399.766052 
	C334.210175,402.654297 331.604279,407.818695 327.333496,410.464935 
	C324.282043,412.355621 322.859406,413.691803 322.977844,417.054871 
	C323.142456,421.728516 323.842255,426.768341 316.948486,427.515228 
	C316.282593,427.587402 315.348083,428.886353 315.235840,429.710785 
	C314.788422,432.997559 312.336700,433.722992 309.973541,435.396698 
	C305.719238,438.409729 302.585266,442.990845 298.928558,446.865234 
	C295.141907,450.877258 291.841858,455.746216 287.276703,458.488525 
	C284.134857,460.375824 282.857422,461.811646 282.986053,465.123260 
	C283.169525,469.845703 283.720947,474.785980 276.892090,475.571960 
	C276.185181,475.653351 275.772675,477.426941 275.029236,478.237000 
	C273.494690,479.908966 271.808533,481.440613 270.224548,483.068756 
	C269.180145,484.142334 268.205231,485.283478 267.199158,486.394348 
	C268.557709,487.258179 269.871582,488.769806 271.282990,488.867126 
	C275.927002,489.187439 280.648346,488.600525 285.262421,489.091278 
	C292.423370,489.852936 299.520538,491.214447 306.352295,492.657349 
	C265.706390,492.993286 225.352890,492.993591 184.999390,492.993896 
z"/>
<path fill="#6F11E9" opacity="1.000000" stroke="none" 
	d="
M184.532593,492.996857 
	C225.352890,492.993591 265.706390,492.993286 306.528107,492.990417 
	C325.350861,492.990234 343.705353,492.992676 362.528107,492.992676 
	C402.612427,492.992981 442.228546,492.987183 481.844604,493.022034 
	C483.983795,493.023895 486.122681,493.366364 488.614716,493.755585 
	C396.277008,493.968597 303.586243,493.978363 210.895493,493.981812 
	C197.249924,493.982300 183.604370,493.952789 169.493408,493.909485 
	C169.028000,493.881775 169.013077,493.446930 169.008652,493.229553 
	C174.024750,493.008087 179.045273,493.003937 184.532593,492.996857 
z"/>
<path fill="#7811F8" opacity="1.000000" stroke="none" 
	d="
M379.797546,367.824341 
	C390.655548,361.208679 400.572723,353.108124 407.337830,341.216919 
	C409.099518,341.452759 410.622833,341.901215 412.146179,342.349701 
	C411.455933,343.741272 411.044342,345.399597 410.019135,346.470551 
	C407.667175,348.927612 405.029877,351.113892 402.481720,353.380066 
	C400.520264,355.124451 397.999878,356.624359 400.377991,360.264862 
	C395.812836,359.135742 392.514771,359.362183 392.608154,365.079376 
	C392.623505,366.019989 390.225342,367.613770 388.779877,367.833130 
	C386.016846,368.252441 383.136658,367.900146 379.797546,367.824341 
z"/>
<path fill="#7811F8" opacity="1.000000" stroke="none" 
	d="
M416.388580,314.967590 
	C416.075592,312.980286 416.144287,310.960449 416.340057,308.527557 
	C416.779419,309.143311 417.091736,310.172089 417.792419,312.480072 
	C417.792419,306.101501 417.792419,301.052216 417.792419,294.739319 
	C420.042847,295.553070 422.517395,295.701263 423.400391,296.963104 
	C424.419861,298.419983 424.565552,300.978729 424.142822,302.844269 
	C423.436493,305.961395 422.229492,309.042175 420.725403,311.867950 
	C420.010284,313.211426 418.125305,313.932159 416.388580,314.967590 
z"/>
<path fill="#7811F8" opacity="1.000000" stroke="none" 
	d="
M359.044800,375.635193 
	C364.962463,373.027405 371.140686,370.702087 377.657104,368.309753 
	C377.734131,373.233490 375.059174,374.988129 370.171875,374.822266 
	C366.566254,374.699921 362.928711,375.518402 359.044800,375.635193 
z"/>
<path fill="#7717F2" opacity="1.000000" stroke="none" 
	d="
M563.377747,322.096497 
	C563.097595,322.156830 563.049988,321.927582 562.933655,321.353668 
	C563.966980,315.952667 562.378235,310.179535 566.837891,306.025391 
	C567.278259,305.615173 567.878723,305.376770 568.695801,305.033905 
	C567.194580,310.608429 565.402466,316.207642 563.377747,322.096497 
z"/>
<path fill="#7811F8" opacity="1.000000" stroke="none" 
	d="
M412.954529,329.961609 
	C413.583740,325.915070 414.360107,322.198639 415.297668,318.145508 
	C415.889923,319.150818 416.701691,320.499115 416.679504,321.833527 
	C416.616882,325.598572 416.338715,329.373749 415.871948,333.110748 
	C415.711792,334.392792 414.742340,335.573792 413.371002,336.395691 
	C413.281250,334.361023 413.191498,332.326385 412.954529,329.961609 
z"/>
<path fill="#7811F8" opacity="1.000000" stroke="none" 
	d="
M360.863129,380.683594 
	C362.206573,385.722748 361.632263,386.282043 355.245392,384.720062 
	C357.497040,382.940765 359.025879,381.732605 360.863129,380.683594 
z"/>
<path fill="#7811F8" opacity="1.000000" stroke="none" 
	d="
M416.642761,304.514069 
	C416.362701,303.170776 416.187286,301.512726 416.078217,299.439941 
	C416.345490,300.749878 416.546448,302.474609 416.642761,304.514069 
z"/>
<path fill="#7811F8" opacity="1.000000" stroke="none" 
	d="
M561.186218,174.246063 
	C560.988037,174.153549 560.882324,173.976974 560.776550,173.800400 
	C560.943909,173.920929 561.111267,174.041473 561.186218,174.246063 
z"/>
<path fill="#7811F8" opacity="1.000000" stroke="none" 
	d="
M375.753662,377.187195 
	C375.846252,376.988678 376.023041,376.882721 376.199829,376.776764 
	C376.079163,376.944397 375.958496,377.112061 375.753662,377.187195 
z"/>
<path fill="#7811F8" opacity="1.000000" stroke="none" 
	d="
M371.812744,376.753845 
	C372.011230,376.846405 372.117157,377.023102 372.223083,377.199799 
	C372.055450,377.079193 371.887848,376.958588 371.812744,376.753845 
z"/>
<path fill="#7811F8" opacity="1.000000" stroke="none" 
	d="
M351.929749,381.523621 
	C351.910309,381.476013 352.103088,381.468201 352.103088,381.468201 
	C352.103088,381.468201 351.949158,381.571228 351.929749,381.523621 
z"/>
<path fill="#7E11FA" opacity="1.000000" stroke="none" 
	d="
M545.141724,34.419785 
	C545.132080,36.336575 545.132080,37.984909 545.132080,40.014053 
	C543.904785,40.014053 542.617554,40.079437 541.339050,40.001427 
	C537.913574,39.792416 536.005798,41.046749 535.929138,44.787251 
	C535.878296,47.261269 535.300354,49.724857 534.950928,52.192047 
	C534.881104,52.685066 534.954834,53.378479 534.661682,53.632431 
	C530.998291,56.805981 527.248291,59.879612 523.589294,63.058105 
	C521.995972,64.442215 520.521423,65.970886 519.064026,67.501587 
	C517.643982,68.993095 516.358337,70.612648 514.936707,72.102615 
	C511.549591,75.652672 509.237671,80.189468 504.444458,82.533615 
	C503.505981,82.992584 504.136658,86.601799 503.988037,88.754227 
	C503.885590,90.238197 504.091797,92.793510 503.468872,93.027145 
	C497.954559,95.095390 496.550415,101.459518 491.605499,104.001816 
	C490.484528,104.578140 488.657990,105.205597 488.522919,106.032692 
	C487.894928,109.878014 485.947205,111.816376 482.103271,112.566681 
	C481.175659,112.747749 480.394043,115.112656 480.052002,116.590561 
	C478.995239,121.156288 480.247070,127.047371 473.093964,127.808273 
	C472.234894,133.594681 466.778503,135.965286 463.717377,140.121201 
	C460.485321,144.509201 456.433472,148.573120 451.963989,151.652863 
	C449.702545,153.211136 448.066956,154.063431 447.918427,156.948563 
	C447.791016,159.423721 448.060577,162.935242 446.616211,164.132233 
	C442.616547,167.446991 439.424591,171.049942 436.521027,175.392883 
	C435.367798,177.117722 431.935272,177.796753 431.565277,181.064728 
	C431.485901,181.765594 430.695251,182.889572 430.131378,182.955460 
	C423.067780,183.780823 423.840210,189.532486 423.163239,194.161652 
	C422.748108,197.000381 421.295471,197.901627 418.924408,199.355606 
	C414.540680,202.043808 410.963226,206.399384 407.771667,210.216919 
	C403.499725,215.326813 404.625366,216.267883 396.889557,214.532822 
	C401.041168,211.123978 402.593567,207.142670 401.282501,202.134811 
	C401.047791,201.238281 402.813263,199.818100 402.830536,199.793900 
	C405.888763,199.399704 407.766113,199.157730 409.643433,198.915741 
	C409.202271,196.466919 408.761108,194.018082 408.319916,191.569229 
	C407.765472,191.709396 407.210999,191.849564 406.656555,191.989731 
	C406.900635,193.309052 407.144714,194.628372 407.444092,196.246643 
	C403.503418,193.305298 403.368225,191.233231 406.273560,188.386169 
	C407.000702,187.673538 407.296173,186.156143 407.205902,185.056580 
	C407.060272,183.282837 406.429810,181.548904 406.002075,179.399078 
	C406.147339,178.929413 406.419647,178.865906 406.424133,178.787201 
	C406.681061,174.259201 407.453033,169.672195 406.974213,165.220032 
	C406.622894,161.953369 403.920776,161.970520 401.175598,164.039246 
	C400.856689,164.167007 400.896637,164.117599 400.862000,163.859634 
	C400.604218,163.075119 400.381104,162.548553 400.157959,162.021988 
	C399.947266,161.771072 399.820618,161.483170 399.817200,160.493454 
	C399.066559,156.990707 397.501495,154.108826 397.659332,151.324615 
	C397.931152,146.529053 395.847839,145.066040 391.633270,145.182190 
	C389.558319,142.872467 387.483368,140.562744 385.166199,137.638214 
	C384.131378,136.512039 383.338715,136.000671 382.546082,135.489319 
	C382.546082,135.489319 382.432373,135.474625 382.615295,135.144806 
	C383.771637,129.333023 380.350891,130.966080 377.559723,131.579758 
	C377.559723,131.579758 377.470490,131.586655 377.505280,131.173340 
	C376.121521,129.413345 374.660126,128.108276 373.298950,126.705933 
	C372.336487,125.714394 371.509674,124.591156 369.904541,122.665771 
	C369.125671,122.901474 366.962463,123.556114 364.799225,124.210754 
	C364.799225,124.210762 364.911316,124.068275 364.790771,123.830322 
	C362.051880,122.781494 359.433533,121.970627 356.815186,121.159767 
	C356.815186,121.159767 356.898254,121.126823 356.764618,120.869293 
	C352.759705,119.084961 348.888458,117.558151 345.004700,116.013290 
	C344.992218,115.995239 344.963104,115.962166 344.668640,115.763260 
	C342.249054,115.039589 340.123932,114.514832 337.998779,113.990082 
	C337.917358,110.137199 337.354706,106.256943 343.015350,105.401443 
	C344.231201,105.217697 345.458496,102.202591 345.870178,100.315018 
	C346.428070,97.757393 345.262604,93.359550 346.483337,92.671028 
	C351.112427,90.060120 353.442719,85.469086 357.182678,82.349495 
	C359.159790,80.700371 360.771576,79.411667 362.326630,77.164932 
	C365.225830,72.976227 368.965057,68.828453 373.317017,66.360893 
	C376.653534,64.469086 378.112671,62.822594 378.007996,59.292168 
	C377.875946,54.839756 377.730347,51.433350 383.422699,48.758179 
	C386.698883,47.218510 390.034454,42.560493 393.135559,39.203995 
	C395.104980,37.072392 397.044464,35.157730 399.092987,33.160324 
	C402.495361,29.842779 405.920654,26.473003 409.236450,23.059679 
	C411.099640,21.141670 411.497253,18.086109 415.068695,17.417261 
	C416.246613,17.196659 417.680267,14.789812 417.815277,13.277137 
	C418.114471,9.925013 419.182678,8.400793 422.803131,7.835515 
	C428.814606,6.896911 434.694397,5.114895 440.809753,3.350140 
	C456.677612,3.005949 472.365326,2.999748 488.520264,2.989915 
	C490.980408,7.113841 495.070892,6.188266 498.389496,6.547976 
	C501.651184,6.901525 505.017059,6.294247 508.668610,6.054278 
	C509.000000,5.999957 509.008057,6.005495 509.008057,6.005490 
	C512.671631,7.002444 516.335205,7.999403 520.404419,9.009897 
	C520.809998,9.023433 520.934814,9.007072 520.975220,9.419731 
	C521.365173,13.541198 520.249451,18.466156 527.042908,16.689560 
	C527.592407,16.545856 529.402039,18.397102 529.350891,19.244343 
	C529.047546,24.268259 532.079102,25.052696 535.995728,24.993828 
	C536.000000,24.999790 536.011963,25.008108 535.939148,25.357029 
	C535.074097,30.945253 537.652710,32.810318 543.059082,30.908361 
	C543.059082,30.908361 543.043518,30.924915 543.130005,31.221296 
	C543.577026,31.977058 543.937500,32.436440 544.297974,32.895813 
	C544.582458,33.314316 544.866943,33.732826 545.141724,34.419785 
z"/>
<path fill="#7811F8" opacity="1.000000" stroke="none" 
	d="
M542.996460,30.570930 
	C537.652710,32.810318 535.074097,30.945253 535.988525,25.325911 
	C536.110657,24.945869 535.991455,24.987867 535.991455,24.987867 
	C532.079102,25.052696 529.047546,24.268259 529.350891,19.244343 
	C529.402039,18.397102 527.592407,16.545856 527.042908,16.689560 
	C520.249451,18.466156 521.365173,13.541198 520.985596,9.481796 
	C530.475708,13.880234 537.410828,21.321548 542.996460,30.570930 
z"/>
<path fill="#6F05F2" opacity="1.000000" stroke="none" 
	d="
M552.617676,103.642014 
	C552.033203,103.559204 551.096252,103.053642 551.098145,102.551666 
	C551.157654,86.960884 551.308777,71.370461 551.629272,55.418388 
	C551.986877,68.611084 552.161072,82.165375 552.186035,96.481705 
	C552.133606,98.107071 552.230469,98.970398 552.327271,99.833733 
	C552.452454,100.962799 552.577698,102.091858 552.617676,103.642014 
z"/>
<path fill="#7811F8" opacity="1.000000" stroke="none" 
	d="
M552.451172,99.519585 
	C552.230469,98.970398 552.133606,98.107071 552.090088,96.915665 
	C552.287292,97.460197 552.431213,98.332817 552.451172,99.519585 
z"/>
<path fill="#7811F8" opacity="1.000000" stroke="none" 
	d="
M544.222900,32.604740 
	C543.937500,32.436440 543.577026,31.977058 543.136536,31.230110 
	C543.420288,31.399580 543.784058,31.856617 544.222900,32.604740 
z"/>
<path fill="#7111F6" opacity="1.000000" stroke="none" 
	d="
M558.561218,332.757843 
	C558.449036,332.601624 558.437134,332.402405 558.425171,332.203186 
	C558.503906,332.373749 558.582703,332.544281 558.561218,332.757843 
z"/>
<path fill="#7E11FA" opacity="1.000000" stroke="none" 
	d="
M499.275787,3.172084 
	C499.178345,3.417708 498.938934,3.626778 498.673798,3.795367 
	C498.643280,3.814761 498.469208,3.608348 498.361664,3.506646 
	C498.616516,3.378933 498.871338,3.251213 499.275787,3.172084 
z"/>
<path fill="#7E11FA" opacity="1.000000" stroke="none" 
	d="
M508.997192,5.995942 
	C508.994385,5.991928 509.108276,5.945581 509.058167,5.975538 
	C509.008057,6.005495 509.000000,5.999957 508.997192,5.995942 
z"/>
<path fill="#7E11FA" opacity="1.000000" stroke="none" 
	d="
M117.528412,491.407471 
	C117.208794,491.561890 116.822884,491.579651 116.436966,491.597412 
	C116.778679,491.488525 117.120392,491.379669 117.528412,491.407471 
z"/>
<path fill="#7B12F8" opacity="1.000000" stroke="none" 
	d="
M322.983093,260.122192 
	C334.474396,260.344177 345.516785,262.624023 355.433655,268.557922 
	C371.263489,278.029999 375.063416,293.085541 372.870605,310.011993 
	C370.725922,326.567230 360.527039,337.015381 344.829620,341.610565 
	C337.245422,343.830719 329.205475,345.343018 321.329041,345.550751 
	C300.707764,346.094574 280.062866,345.744232 259.371368,345.070374 
	C259.542816,342.430206 259.964661,340.470276 259.968231,338.509583 
	C260.011475,314.718536 260.103699,290.926392 259.898956,267.136993 
	C259.857178,262.278137 261.514618,260.848969 266.239838,260.911713 
	C283.040375,261.134888 299.845825,261.027283 316.649078,260.956726 
	C318.761566,260.947876 320.871796,260.413208 322.983093,260.122192 
z"/>
<path fill="#8013FA" opacity="1.000000" stroke="none" 
	d="
M258.829590,150.984741 
	C259.544678,150.689560 260.261749,150.132004 260.974579,150.137360 
	C281.956757,150.294922 302.974365,149.832642 323.908325,150.941284 
	C338.840912,151.732086 352.035126,157.535477 358.191284,172.698563 
	C364.658997,188.628906 362.103180,212.373947 338.615051,222.302750 
	C328.634277,226.521805 318.181183,228.216797 307.438416,228.299240 
	C292.446259,228.414291 277.452881,228.405334 262.460205,228.376495 
	C260.682800,228.373077 258.083923,229.210739 258.710205,225.133041 
	C259.399536,223.388748 259.949768,222.299286 259.954010,221.207703 
	C260.042389,198.595139 260.081879,175.982315 260.053497,153.369629 
	C260.052490,152.574142 259.255554,151.779678 258.829590,150.984741 
z"/>
<path fill="#6F05F2" opacity="1.000000" stroke="none" 
	d="
M322.525238,260.019409 
	C320.871796,260.413208 318.761566,260.947876 316.649078,260.956726 
	C299.845825,261.027283 283.040375,261.134888 266.239838,260.911713 
	C261.514618,260.848969 259.857178,262.278137 259.898956,267.136993 
	C260.103699,290.926392 260.011475,314.718536 259.968231,338.509583 
	C259.964661,340.470276 259.542816,342.430206 259.084381,344.745605 
	C258.669434,343.978119 258.325714,342.855652 258.324921,341.732880 
	C258.306641,316.428253 258.325989,291.123627 258.563965,265.036926 
	C258.857666,262.880768 258.925659,261.506622 258.993622,260.132507 
	C260.617462,259.946747 262.241913,259.594421 263.865021,259.600647 
	C283.265930,259.675110 302.666626,259.802856 322.525238,260.019409 
z"/>
<path fill="#7A01F4" opacity="1.000000" stroke="none" 
	d="
M258.734375,151.045624 
	C259.255554,151.779678 260.052490,152.574142 260.053497,153.369629 
	C260.081879,175.982315 260.042389,198.595139 259.954010,221.207703 
	C259.949768,222.299286 259.399536,223.388748 258.829651,224.714203 
	C258.490875,201.236633 258.425964,177.524017 258.550232,153.092804 
	C258.742706,152.017410 258.746033,151.660614 258.749359,151.303833 
	C258.749359,151.303833 258.639160,151.106491 258.734375,151.045624 
z"/>
<path fill="#7717F2" opacity="1.000000" stroke="none" 
	d="
M337.549194,113.992790 
	C340.123932,114.514832 342.249054,115.039589 344.397369,115.772041 
	C343.849609,116.098541 343.278687,116.217346 342.707764,116.336151 
	C342.783539,116.562523 342.859283,116.788895 342.935059,117.015259 
	C343.629089,116.687286 344.323151,116.359314 345.017181,116.031342 
	C348.888458,117.558151 352.759705,119.084961 356.779388,120.911469 
	C348.894897,119.821327 340.861969,118.431488 332.420288,116.746246 
	C332.011475,116.450844 332.023529,116.017090 332.342041,116.015427 
	C333.531189,115.936127 334.401825,115.858482 335.272430,115.780838 
	C335.269928,115.518326 335.267456,115.255821 335.264954,114.993309 
	C334.179474,114.993309 333.094025,114.993309 331.634155,114.993988 
	C330.510956,114.989647 329.762207,114.984627 329.011658,114.737854 
	C329.009918,114.496086 329.006836,114.012047 329.006836,114.012047 
	C331.704407,114.006538 334.402008,114.001022 337.549194,113.992790 
z"/>
<path fill="#7717F2" opacity="1.000000" stroke="none" 
	d="
M365.022064,124.466827 
	C366.962463,123.556114 369.125671,122.901474 369.904541,122.665771 
	C371.509674,124.591156 372.336487,125.714394 373.298950,126.705933 
	C374.660126,128.108276 376.121521,129.413345 377.492889,131.130341 
	C373.378784,129.241409 369.311829,126.982155 365.022064,124.466827 
z"/>
<path fill="#7717F2" opacity="1.000000" stroke="none" 
	d="
M391.739868,145.517792 
	C395.847839,145.066040 397.931152,146.529053 397.659332,151.324615 
	C397.501495,154.108826 399.066559,156.990707 399.838196,160.255981 
	C397.162170,155.740021 394.504303,150.796707 391.739868,145.517792 
z"/>
<path fill="#6F05F2" opacity="1.000000" stroke="none" 
	d="
M233.509308,379.439575 
	C230.389481,380.026245 226.836456,380.588226 223.264008,380.966522 
	C221.504013,381.152924 219.708054,380.999756 217.778030,380.809387 
	C220.048431,380.265503 222.469193,379.912506 224.889938,379.559540 
	C227.615997,379.486084 230.342072,379.412598 233.509308,379.439575 
z"/>
<path fill="#7717F2" opacity="1.000000" stroke="none" 
	d="
M377.758118,131.814911 
	C380.350891,130.966080 383.771637,129.333023 382.614075,135.087494 
	C380.938812,134.256668 379.447632,133.153381 377.758118,131.814911 
z"/>
<path fill="#7717F2" opacity="1.000000" stroke="none" 
	d="
M357.077271,121.398888 
	C359.433533,121.970627 362.051880,122.781494 364.751099,123.911819 
	C362.334442,123.366859 359.836914,122.502434 357.077271,121.398888 
z"/>
<path fill="#6F05F2" opacity="1.000000" stroke="none" 
	d="
M328.551941,379.258484 
	C326.806030,379.557922 324.626404,379.804810 322.241394,379.793701 
	C324.063416,379.425812 326.090790,379.315857 328.551941,379.258484 
z"/>
<path fill="#6F05F2" opacity="1.000000" stroke="none" 
	d="
M299.720367,379.447388 
	C295.945587,379.738495 291.701355,379.921967 287.111969,379.834991 
	C290.928162,379.489594 295.089569,379.414642 299.720367,379.447388 
z"/>
<path fill="#6F05F2" opacity="1.000000" stroke="none" 
	d="
M248.765106,379.451660 
	C247.397766,380.041748 245.612579,380.524200 243.411362,381.012817 
	C242.120956,380.685425 241.246597,380.351868 240.212646,379.777283 
	C242.817795,379.472198 245.582520,379.408142 248.765106,379.451660 
z"/>
<path fill="#8813FD" opacity="1.000000" stroke="none" 
	d="
M332.023529,116.017090 
	C332.023529,116.017090 332.011475,116.450844 332.006897,116.667755 
	C329.282257,116.837257 326.562164,116.789848 323.405365,116.615143 
	C322.968628,116.487846 322.973724,116.199646 323.380554,116.057953 
	C324.279236,115.890968 324.771027,115.865677 325.585999,115.855560 
	C326.935577,115.581337 327.962036,115.291939 328.995544,114.999802 
	C329.002594,114.997055 329.013428,114.979614 329.013428,114.979614 
	C329.762207,114.984627 330.510956,114.989647 331.635956,115.250000 
	C332.015961,115.675926 332.019745,115.846512 332.023529,116.017090 
z"/>
<path fill="#7811F8" opacity="1.000000" stroke="none" 
	d="
M224.465775,379.436981 
	C222.469193,379.912506 220.048431,380.265503 217.310364,380.810303 
	C216.663651,380.380035 216.334244,379.757935 216.088226,378.894653 
	C218.794937,378.873779 221.418274,379.094116 224.465775,379.436981 
z"/>
<path fill="#6F05F2" opacity="1.000000" stroke="none" 
	d="
M282.724976,379.452637 
	C279.939301,379.740295 276.690369,379.919281 273.104523,379.830872 
	C275.932312,379.490295 279.096985,379.417145 282.724976,379.452637 
z"/>
<path fill="#7B12F8" opacity="1.000000" stroke="none" 
	d="
M258.703003,260.345123 
	C258.925659,261.506622 258.857666,262.880768 258.655029,264.568970 
	C258.484375,263.441284 258.448395,261.999512 258.703003,260.345123 
z"/>
<path fill="#7717F2" opacity="1.000000" stroke="none" 
	d="
M382.702576,135.718475 
	C383.338715,136.000671 384.131378,136.512039 384.990540,137.340912 
	C384.324402,137.088181 383.591736,136.517914 382.702576,135.718475 
z"/>
<path fill="#7811F8" opacity="1.000000" stroke="none" 
	d="
M400.134583,162.318756 
	C400.381104,162.548553 400.604218,163.075119 400.859161,163.890732 
	C400.631073,163.658386 400.371155,163.136963 400.134583,162.318756 
z"/>
<path fill="#8013FA" opacity="1.000000" stroke="none" 
	d="
M258.565308,151.530975 
	C258.746033,151.660614 258.742706,152.017410 258.648438,152.625809 
	C258.498749,152.504318 258.440002,152.131210 258.565308,151.530975 
z"/>
<path fill="#8211FB" opacity="1.000000" stroke="none" 
	d="
M210.000000,272.998779 
	C209.998871,270.628601 209.997757,268.258392 210.197357,265.132416 
	C210.265335,262.251068 210.132614,260.125549 209.999893,258.000000 
	C209.998672,238.978958 209.997452,219.957932 210.209503,200.822083 
	C210.616638,204.114059 210.627090,207.545486 211.079880,210.917496 
	C211.314606,212.665344 212.332504,214.307999 212.996567,215.998184 
	C212.991379,269.015533 212.986191,322.032867 212.974625,375.516663 
	C212.312729,373.926849 211.100342,371.874023 211.087311,369.813660 
	C210.948914,347.910217 211.016800,326.005493 210.975449,304.101257 
	C210.971420,301.970428 210.616302,299.840240 210.213654,297.354370 
	C210.001587,294.628937 210.000000,292.258881 210.210052,289.090851 
	C210.281113,283.194855 210.140549,278.096802 210.000000,272.998779 
z"/>
<path fill="#8813FD" opacity="1.000000" stroke="none" 
	d="
M214.014832,265.459991 
	C214.020050,264.990387 214.489166,264.992249 214.723236,264.991302 
	C214.964340,302.010468 214.971375,339.030548 214.971115,376.517548 
	C214.963821,376.984436 214.489380,376.988068 214.252350,376.987305 
	C214.013412,339.967590 214.011520,302.948578 214.014832,265.459991 
z"/>
<path fill="#7811F8" opacity="1.000000" stroke="none" 
	d="
M227.718262,383.979553 
	C224.613068,383.992004 221.842529,383.992004 219.072006,383.992004 
	C219.065765,383.692047 219.059509,383.392059 219.053268,383.092102 
	C222.174347,383.092102 225.295425,383.089447 228.416443,383.100555 
	C228.558838,383.101044 228.700806,383.225159 228.842987,383.291687 
	C228.579636,383.516815 228.316284,383.741974 227.718262,383.979553 
z"/>
<path fill="#8211FB" opacity="1.000000" stroke="none" 
	d="
M212.493713,381.493835 
	C212.513031,381.486908 212.474380,381.500732 212.493713,381.493835 
z"/>
<path fill="#7E11FA" opacity="1.000000" stroke="none" 
	d="
M325.262848,115.840393 
	C324.771027,115.865677 324.279236,115.890968 323.418335,115.918869 
	C323.034485,115.497528 323.019714,115.073578 322.997253,114.331039 
	C324.796631,113.879478 326.603607,113.746506 328.708740,113.812790 
	C329.006836,114.012047 329.009918,114.496086 329.011658,114.737854 
	C329.013428,114.979614 329.002594,114.997055 328.661621,115.005325 
	C327.301361,115.289200 326.282104,115.564804 325.262848,115.840393 
z"/>
<path fill="#7E11FA" opacity="1.000000" stroke="none" 
	d="
M320.808807,113.889908 
	C320.524933,114.300499 320.040009,114.583153 319.277985,114.926727 
	C319.536530,114.579086 320.072144,114.170532 320.808807,113.889908 
z"/>
<path fill="#8813FD" opacity="1.000000" stroke="none" 
	d="
M123.996826,4.078466 
	C124.781815,4.500031 125.265450,4.921939 125.749084,5.343847 
	C124.591866,5.349308 123.434654,5.354767 122.277435,5.360228 
	C122.750122,4.933088 123.222801,4.505949 123.996826,4.078466 
z"/>
<path fill="#8813FD" opacity="1.000000" stroke="none" 
	d="
M72.621277,103.099380 
	C72.316170,102.069061 72.193771,100.916351 72.071373,99.763641 
	C72.315575,99.763870 72.559776,99.764107 72.803978,99.764336 
	C72.803978,100.835220 72.803978,101.906113 72.621277,103.099380 
z"/>
<path fill="#8813FD" opacity="1.000000" stroke="none" 
	d="
M72.588028,73.989128 
	C72.586273,74.039734 72.420326,73.982834 72.420326,73.982834 
	C72.420326,73.982834 72.589775,73.938522 72.588028,73.989128 
z"/>
<path fill="#8813FD" opacity="1.000000" stroke="none" 
	d="
M212.998810,215.529724 
	C212.332504,214.307999 211.314606,212.665344 211.079880,210.917496 
	C210.627090,207.545486 210.616638,204.114059 210.211731,200.353394 
	C209.999176,185.645508 209.997711,171.291489 210.081787,156.354279 
	C210.274216,155.484528 210.218109,155.227493 209.999008,154.999969 
	C209.996780,143.980621 209.994568,132.961258 209.994293,121.473969 
	C210.797180,120.397461 211.598145,119.788902 212.687073,119.089783 
	C212.983704,151.019897 212.992371,183.040588 212.998810,215.529724 
z"/>
<path fill="#7E11FA" opacity="1.000000" stroke="none" 
	d="
M209.998322,273.465759 
	C210.140549,278.096802 210.281113,283.194855 210.211395,288.646790 
	C209.999603,283.978027 209.998108,278.955414 209.998322,273.465759 
z"/>
<path fill="#7E11FA" opacity="1.000000" stroke="none" 
	d="
M209.998199,258.437500 
	C210.132614,260.125549 210.265335,262.251068 210.198761,264.688293 
	C209.998459,262.958344 209.997467,260.916656 209.998199,258.437500 
z"/>
<path fill="#8211FB" opacity="1.000000" stroke="none" 
	d="
M209.998108,155.250015 
	C210.218109,155.227493 210.274216,155.484528 210.083359,155.885620 
	C209.998657,155.833450 209.997925,155.666748 209.998108,155.250015 
z"/>
<path fill="#7111F6" opacity="1.000000" stroke="none" 
	d="
M556.986694,162.007751 
	C556.974731,162.016907 556.948364,161.879639 556.982544,161.927063 
	C557.016785,161.974503 556.998596,161.998581 556.986694,162.007751 
z"/>
<path fill="#7E11FA" opacity="1.000000" stroke="none" 
	d="
M405.972168,178.951080 
	C406.000000,179.000000 405.944336,178.902176 405.972168,178.951080 
z"/>
<path fill="#7E11FA" opacity="1.000000" stroke="none" 
	d="
M535.995728,24.993828 
	C535.991455,24.987867 536.110657,24.945869 536.061279,24.976990 
	C536.011963,25.008108 536.000000,24.999790 535.995728,24.993828 
z"/>
<path fill="#7E11FA" opacity="1.000000" stroke="none" 
	d="
M332.342041,116.015427 
	C332.019745,115.846512 332.015961,115.675926 332.010376,115.249321 
	C333.094025,114.993309 334.179474,114.993309 335.264954,114.993309 
	C335.267456,115.255821 335.269928,115.518326 335.272430,115.780838 
	C334.401825,115.858482 333.531189,115.936127 332.342041,116.015427 
z"/>
<path fill="#7E11FA" opacity="1.000000" stroke="none" 
	d="
M345.004700,116.013290 
	C344.323151,116.359314 343.629089,116.687286 342.935059,117.015259 
	C342.859283,116.788895 342.783539,116.562523 342.707764,116.336151 
	C343.278687,116.217346 343.849609,116.098541 344.691833,115.970947 
	C344.963104,115.962166 344.992218,115.995239 345.004700,116.013290 
z"/>
<path fill="#7A01F4" opacity="1.000000" stroke="none" 
	d="
M325.585999,115.855560 
	C326.282104,115.564804 327.301361,115.289200 328.654541,115.008072 
	C327.962036,115.291939 326.935577,115.581337 325.585999,115.855560 
z"/>
</svg>