<svg version="1.1" id="Layer_1" xmlns="http://www.w3.org/2000/svg" xmlns:xlink="http://www.w3.org/1999/xlink" x="0px" y="0px"
	 width="100%" viewBox="0 0 521 588" enable-background="new 0 0 521 588" xml:space="preserve">
<path fill="#E44D26" opacity="1.000000" stroke="none" 
	d="
M263.000000,589.000000 
	C261.611115,589.000000 260.222198,589.000000 258.271484,588.659546 
	C256.790863,587.942139 255.899521,587.466370 254.949341,587.202393 
	C187.957169,568.589661 120.971230,549.953979 53.933807,531.505493 
	C50.297577,530.504761 49.235435,528.864075 48.979530,525.424927 
	C48.028149,512.639526 46.865437,499.869232 45.714684,487.099335 
	C41.843685,444.142853 37.906494,401.192352 34.067078,358.233063 
	C31.206116,326.221710 28.502249,294.196350 25.647045,262.184479 
	C22.155678,223.040115 18.545374,183.906372 15.049501,144.762421 
	C11.746205,107.774780 8.478778,70.783791 5.295232,33.785706 
	C4.356158,22.872108 3.755659,11.929379 3.000000,1.000000 
	C175.024902,1.000000 347.049805,1.000000 519.717529,1.433656 
	C517.157104,39.032169 514.024841,76.203323 510.732056,113.360237 
	C506.924774,156.323059 502.934357,199.269623 499.101135,242.230179 
	C495.622955,281.211121 492.290955,320.205109 488.817200,359.186462 
	C485.595093,395.343872 482.256531,431.490875 478.997040,467.644958 
	C477.247620,487.049805 475.546753,506.459076 473.850739,525.868713 
	C473.623962,528.464294 473.267059,530.328125 469.985718,531.228027 
	C413.036407,546.846313 356.127106,562.610901 299.230804,578.421570 
	C287.109985,581.789795 275.074677,585.465759 263.000000,589.000000 
M261.053833,307.960297 
	C261.034637,341.597931 261.015442,375.235565 260.218994,408.965546 
	C237.893219,402.899902 215.585602,396.765656 193.221680,390.844055 
	C189.937820,389.974518 188.678696,388.600037 188.536072,385.145721 
	C188.254608,378.329590 187.411484,371.536255 186.785675,364.734863 
	C185.979431,355.972931 185.158508,347.212341 184.327560,338.275391 
	C162.440979,338.275391 141.030609,338.275391 119.466248,338.275391 
	C119.412788,339.200897 119.294533,339.844818 119.350922,340.473083 
	C122.225349,372.495758 125.157928,404.513336 127.924820,436.545258 
	C128.160400,439.272552 129.311630,440.197571 131.666138,440.844635 
	C152.210068,446.490295 172.737000,452.198120 193.256287,457.932953 
	C215.851517,464.248047 238.433319,470.611115 261.026337,477.896484 
	C261.026337,499.744049 261.026337,521.591614 261.026337,544.122742 
	C267.017731,542.526794 271.666901,541.342468 276.285614,540.049194 
	C304.639648,532.109924 332.973419,524.097717 361.340668,516.205872 
	C382.981018,510.185486 404.599701,504.067078 426.362946,498.521790 
	C432.384399,496.987549 433.744720,493.506653 434.012115,488.313782 
	C434.311035,482.508301 434.769409,476.708435 435.281769,470.917053 
	C436.481537,457.356750 437.776093,443.804932 438.992554,430.246094 
	C440.105530,417.840332 441.142212,405.427673 442.255951,393.021973 
	C443.814667,375.659515 445.440155,358.303040 446.986633,340.939514 
	C448.106293,328.368011 449.115143,315.786652 450.225861,303.214294 
	C451.453125,289.322937 452.755341,275.438141 453.995972,261.547913 
	C454.793793,252.615158 455.501068,243.674225 456.317444,234.743225 
	C457.511353,221.681870 458.812714,208.630280 459.982758,195.566864 
	C461.138397,182.664902 462.148590,169.749954 463.294312,156.847061 
	C464.483704,143.452408 465.785583,130.067780 466.987854,116.674225 
	C467.834076,107.246758 468.551270,97.807663 469.406342,88.381042 
	C470.561218,75.649231 471.726746,62.917625 473.026184,50.200085 
	C473.515869,45.407612 471.717285,43.904564 466.873718,43.914394 
	C400.216888,44.049713 333.559601,44.045399 266.902710,43.920235 
	C262.270233,43.911533 260.885284,45.395805 260.934845,49.947601 
	C261.145264,69.275932 261.036652,88.607735 260.098083,107.975426 
	C208.658447,107.983719 157.218811,107.978203 105.779259,108.046791 
	C103.535934,108.049782 101.293503,108.732719 98.946594,109.984901 
	C99.594841,117.440872 100.237526,124.897331 100.892227,132.352737 
	C105.330963,182.899139 109.765091,233.445923 114.220894,283.990814 
	C114.842834,291.045837 115.575356,298.091095 116.291992,305.506134 
	C118.791023,305.506134 120.767754,305.506134 122.744484,305.506134 
	C166.849014,305.506165 210.953552,305.501678 255.058090,305.520691 
	C257.042480,305.521545 259.026794,305.735199 261.035645,306.438599 
	C261.049286,306.634613 261.062958,306.830597 261.053833,307.960297 
z"/>
<path fill="#FFFEFE" opacity="1.000000" stroke="none" 
	d="
M263.468658,589.000000 
	C275.074677,585.465759 287.109985,581.789795 299.230804,578.421570 
	C356.127106,562.610901 413.036407,546.846313 469.985718,531.228027 
	C473.267059,530.328125 473.623962,528.464294 473.850739,525.868713 
	C475.546753,506.459076 477.247620,487.049805 478.997040,467.644958 
	C482.256531,431.490875 485.595093,395.343872 488.817200,359.186462 
	C492.290955,320.205109 495.622955,281.211121 499.101135,242.230179 
	C502.934357,199.269623 506.924774,156.323059 510.732056,113.360237 
	C514.024841,76.203323 517.157104,39.032169 520.180176,1.433651 
	C520.666687,1.332808 521.783691,1.546913 521.909058,2.022415 
	C522.196411,3.112743 522.000000,4.330585 522.000000,5.496650 
	C522.000000,199.896408 522.000000,394.296173 522.000000,589.000000 
	C435.979340,589.000000 349.958344,589.000000 263.468658,589.000000 
z"/>
<path fill="#FFFEFE" opacity="1.000000" stroke="none" 
	d="
M2.500000,1.000000 
	C3.755659,11.929379 4.356158,22.872108 5.295232,33.785706 
	C8.478778,70.783791 11.746205,107.774780 15.049501,144.762421 
	C18.545374,183.906372 22.155678,223.040115 25.647045,262.184479 
	C28.502249,294.196350 31.206116,326.221710 34.067078,358.233063 
	C37.906494,401.192352 41.843685,444.142853 45.714684,487.099335 
	C46.865437,499.869232 48.028149,512.639526 48.979530,525.424927 
	C49.235435,528.864075 50.297577,530.504761 53.933807,531.505493 
	C120.971230,549.953979 187.957169,568.589661 254.949341,587.202393 
	C255.899521,587.466370 256.790863,587.942139 257.854828,588.659546 
	C172.333344,589.000000 86.666679,589.000000 1.000008,589.000000 
	C1.000000,394.500031 0.997750,200.000031 1.041332,5.500059 
	C1.041668,3.999968 1.666667,2.500017 2.500000,1.000000 
z"/>
<path fill="#F1652A" opacity="1.000000" stroke="none" 
	d="
M261.044556,107.938271 
	C261.036652,88.607735 261.145264,69.275932 260.934845,49.947601 
	C260.885284,45.395805 262.270233,43.911533 266.902710,43.920235 
	C333.559601,44.045399 400.216888,44.049713 466.873718,43.914394 
	C471.717285,43.904564 473.515869,45.407612 473.026184,50.200085 
	C471.726746,62.917625 470.561218,75.649231 469.406342,88.381042 
	C468.551270,97.807663 467.834076,107.246758 466.987854,116.674225 
	C465.785583,130.067780 464.483704,143.452408 463.294312,156.847061 
	C462.148590,169.749954 461.138397,182.664902 459.982758,195.566864 
	C458.812714,208.630280 457.511353,221.681870 456.317444,234.743225 
	C455.501068,243.674225 454.793793,252.615158 453.995972,261.547913 
	C452.755341,275.438141 451.453125,289.322937 450.225861,303.214294 
	C449.115143,315.786652 448.106293,328.368011 446.986633,340.939514 
	C445.440155,358.303040 443.814667,375.659515 442.255951,393.021973 
	C441.142212,405.427673 440.105530,417.840332 438.992554,430.246094 
	C437.776093,443.804932 436.481537,457.356750 435.281769,470.917053 
	C434.769409,476.708435 434.311035,482.508301 434.012115,488.313782 
	C433.744720,493.506653 432.384399,496.987549 426.362946,498.521790 
	C404.599701,504.067078 382.981018,510.185486 361.340668,516.205872 
	C332.973419,524.097717 304.639648,532.109924 276.285614,540.049194 
	C271.666901,541.342468 267.017731,542.526794 261.026337,544.122742 
	C261.026337,521.591614 261.026337,499.744049 261.213440,477.332153 
	C261.707367,476.731506 261.930695,476.575562 262.471985,476.278381 
	C305.368164,464.480896 347.856842,452.682983 390.371704,440.980225 
	C393.130646,440.220795 394.550995,439.084290 394.806580,436.047638 
	C396.762085,412.812378 398.841644,389.587433 400.917999,366.362488 
	C403.795593,334.176025 406.719360,301.993744 409.589905,269.806671 
	C410.444489,260.224457 411.186798,250.632278 412.021729,240.547195 
	C409.586487,240.547195 407.611237,240.547211 405.635986,240.547211 
	C359.973175,240.547287 314.310394,240.551697 268.647583,240.532684 
	C266.662933,240.531860 264.678314,240.315552 262.593719,240.140564 
	C262.493744,240.081497 262.349884,239.899200 262.288422,239.699280 
	C261.840302,239.323837 261.453613,239.148300 261.057861,238.505920 
	C261.039307,219.113281 260.995270,200.187347 261.065704,181.261841 
	C261.074188,178.980392 261.702606,176.701263 262.029968,174.282837 
	C262.016266,174.144623 261.953949,173.873901 262.419373,173.957886 
	C291.153839,174.057053 319.422913,174.076706 347.691986,174.085953 
	C369.475983,174.093079 391.260101,174.058762 413.043915,174.120132 
	C416.026367,174.128540 418.164398,173.789917 418.461121,170.066650 
	C419.965698,151.186569 421.618713,132.318329 423.370697,113.248291 
	C423.645630,112.718269 423.622833,112.396278 423.566925,111.766029 
	C423.451263,110.623863 423.221924,109.800377 422.646729,108.752075 
	C420.159821,108.356979 418.018951,108.040108 415.877747,108.037888 
	C364.266693,107.984291 312.655640,107.964317 261.044556,107.938271 
z"/>
<path fill="#EBEAEA" opacity="1.000000" stroke="none" 
	d="
M261.011139,305.849731 
	C259.026794,305.735199 257.042480,305.521545 255.058090,305.520691 
	C210.953552,305.501678 166.849014,305.506165 122.744484,305.506134 
	C120.767754,305.506134 118.791023,305.506134 116.291992,305.506134 
	C115.575356,298.091095 114.842834,291.045837 114.220894,283.990814 
	C109.765091,233.445923 105.330963,182.899139 100.892227,132.352737 
	C100.237526,124.897331 99.594841,117.440872 99.462677,109.547928 
	C128.062164,109.111656 156.145584,109.092766 184.228973,109.118828 
	C210.148026,109.142876 236.067047,109.215141 261.993164,109.717873 
	C261.984802,131.404358 261.969360,152.639130 261.953949,173.873901 
	C261.953949,173.873901 262.016266,174.144623 261.570709,174.176697 
	C231.060532,174.231003 200.995926,174.253235 170.701538,174.229752 
	C170.121597,174.332535 169.996964,174.590210 170.014023,175.394775 
	C171.837708,197.285690 173.745239,218.738846 175.685135,240.555939 
	C183.903961,240.555939 191.522781,240.531021 199.141403,240.560715 
	C220.073242,240.642288 241.005005,240.746780 261.945007,241.320679 
	C261.977875,262.945923 262.002563,284.092712 261.784149,305.410187 
	C261.364380,305.670532 261.187744,305.760132 261.011139,305.849731 
z"/>
<path fill="#EBEAEA" opacity="1.000000" stroke="none" 
	d="
M262.070526,476.300018 
	C261.930695,476.575562 261.707367,476.731506 261.210754,476.860596 
	C238.433319,470.611115 215.851517,464.248047 193.256287,457.932953 
	C172.737000,452.198120 152.210068,446.490295 131.666138,440.844635 
	C129.311630,440.197571 128.160400,439.272552 127.924820,436.545258 
	C125.157928,404.513336 122.225349,372.495758 119.350922,340.473083 
	C119.294533,339.844818 119.412788,339.200897 119.466248,338.275391 
	C141.030609,338.275391 162.440979,338.275391 184.327560,338.275391 
	C185.158508,347.212341 185.979431,355.972931 186.785675,364.734863 
	C187.411484,371.536255 188.254608,378.329590 188.536072,385.145721 
	C188.678696,388.600037 189.937820,389.974518 193.221680,390.844055 
	C215.585602,396.765656 237.893219,402.899902 260.855225,408.998657 
	C261.659912,409.072723 261.828369,409.113678 261.994568,409.613037 
	C262.018433,432.147644 262.044495,454.223846 262.070526,476.300018 
z"/>
<path fill="#F16529" opacity="1.000000" stroke="none" 
	d="
M261.996796,409.154602 
	C261.828369,409.113678 261.659912,409.072723 261.243835,408.952484 
	C261.015442,375.235565 261.034637,341.597931 261.343933,307.411560 
	C262.094788,306.517151 262.555573,306.171509 263.469696,305.700317 
	C276.186279,305.549622 288.449677,305.471222 300.712646,305.514008 
	C313.461639,305.558472 326.210205,305.720001 339.081665,305.928833 
	C339.204376,306.027313 339.643127,306.084778 339.643127,306.084778 
	C339.643127,306.084778 340.036743,305.841858 340.409332,306.032410 
	C340.807251,307.212891 340.931030,308.211609 340.843414,309.191406 
	C338.738464,332.727356 336.619629,356.262054 334.483276,379.795197 
	C333.581177,389.732544 333.535034,389.636475 324.053741,392.199341 
	C303.352936,397.795074 282.680695,403.496429 261.996796,409.154602 
z"/>
<path fill="#EA4C07" opacity="1.000000" stroke="none" 
	d="
M261.986084,109.266159 
	C236.067047,109.215141 210.148026,109.142876 184.228973,109.118828 
	C156.145584,109.092766 128.062164,109.111656 99.514709,109.104935 
	C101.293503,108.732719 103.535934,108.049782 105.779259,108.046791 
	C157.218811,107.978203 208.658447,107.983719 260.571320,107.956848 
	C312.655640,107.964317 364.266693,107.984291 415.877747,108.037888 
	C418.018951,108.040108 420.159821,108.356979 422.180603,108.796967 
	C380.999512,109.072006 339.938660,109.063904 298.877838,109.090881 
	C286.580566,109.098961 274.283325,109.205002 261.986084,109.266159 
z"/>
<path fill="#F15F1A" opacity="1.000000" stroke="none" 
	d="
M263.016327,305.825867 
	C262.555573,306.171509 262.094788,306.517151 261.355286,306.944702 
	C261.062958,306.830597 261.049286,306.634613 261.023376,306.144165 
	C261.187744,305.760132 261.364380,305.670532 262.030029,305.559296 
	C262.684784,305.633728 262.850555,305.729797 263.016327,305.825867 
z"/>
<path fill="#FFFFFE" opacity="1.000000" stroke="none" 
	d="
M263.469696,305.700317 
	C262.850555,305.729797 262.684784,305.633728 262.273132,305.388580 
	C262.002563,284.092712 261.977875,262.945923 262.133942,241.159485 
	C262.314697,240.519806 262.693695,240.199631 262.693695,240.199631 
	C264.678314,240.315552 266.662933,240.531860 268.647583,240.532684 
	C314.310394,240.551697 359.973175,240.547287 405.635986,240.547211 
	C407.611237,240.547211 409.586487,240.547195 412.021729,240.547195 
	C411.186798,250.632278 410.444489,260.224457 409.589905,269.806671 
	C406.719360,301.993744 403.795593,334.176025 400.917999,366.362488 
	C398.841644,389.587433 396.762085,412.812378 394.806580,436.047638 
	C394.550995,439.084290 393.130646,440.220795 390.371704,440.980225 
	C347.856842,452.682983 305.368164,464.480896 262.471985,476.278381 
	C262.044495,454.223846 262.018433,432.147644 261.994568,409.613037 
	C282.680695,403.496429 303.352936,397.795074 324.053741,392.199341 
	C333.535034,389.636475 333.581177,389.732544 334.483276,379.795197 
	C336.619629,356.262054 338.738464,332.727356 340.843414,309.191406 
	C340.931030,308.211609 340.807251,307.212891 340.140747,305.949768 
	C339.319336,305.727814 339.139130,305.779083 338.958954,305.830353 
	C326.210205,305.720001 313.461639,305.558472 300.712646,305.514008 
	C288.449677,305.471222 276.186279,305.549622 263.469696,305.700317 
z"/>
<path fill="#FFFFFF" opacity="1.000000" stroke="none" 
	d="
M261.993164,109.717865 
	C274.283325,109.205002 286.580566,109.098961 298.877838,109.090881 
	C339.938660,109.063904 380.999512,109.072006 422.526459,109.021774 
	C423.221924,109.800377 423.451263,110.623863 423.455322,111.975616 
	C423.129944,112.816811 423.126495,113.130829 423.219727,113.445930 
	C421.618713,132.318329 419.965698,151.186569 418.461121,170.066650 
	C418.164398,173.789917 416.026367,174.128540 413.043915,174.120132 
	C391.260101,174.058762 369.475983,174.093079 347.691986,174.085953 
	C319.422913,174.076706 291.153839,174.057053 262.419373,173.957886 
	C261.969360,152.639130 261.984802,131.404358 261.993164,109.717865 
z"/>
<path fill="#E44D26" opacity="1.000000" stroke="none" 
	d="
M262.593719,240.140564 
	C262.693695,240.199631 262.314697,240.519806 262.125732,240.681000 
	C241.005005,240.746780 220.073242,240.642288 199.141403,240.560715 
	C191.522781,240.531021 183.903961,240.555939 175.685135,240.555939 
	C173.745239,218.738846 171.837708,197.285690 170.173706,175.308319 
	C170.623093,174.649475 170.794464,174.479919 170.931305,174.275467 
	C200.995926,174.253235 231.060532,174.231003 261.584412,174.314911 
	C261.702606,176.701263 261.074188,178.980392 261.065704,181.261841 
	C260.995270,200.187347 261.039307,219.113281 261.181702,238.675476 
	C261.659729,239.507629 262.004791,239.703415 262.349884,239.899200 
	C262.349884,239.899200 262.493744,240.081497 262.593719,240.140564 
z"/>
<path fill="#F15F1A" opacity="1.000000" stroke="none" 
	d="
M262.288422,239.699280 
	C262.004791,239.703415 261.659729,239.507629 261.190796,239.142319 
	C261.453613,239.148300 261.840302,239.323837 262.288422,239.699280 
z"/>
<path fill="#EBEAEA" opacity="1.000000" stroke="none" 
	d="
M423.370728,113.248291 
	C423.126495,113.130829 423.129944,112.816811 423.341675,112.294281 
	C423.622833,112.396278 423.645630,112.718269 423.370728,113.248291 
z"/>
<path fill="#F1652A" opacity="1.000000" stroke="none" 
	d="
M170.701538,174.229752 
	C170.794464,174.479919 170.623093,174.649475 170.257538,174.870575 
	C169.996964,174.590210 170.121597,174.332535 170.701538,174.229752 
z"/>
<path fill="#F15F1A" opacity="1.000000" stroke="none" 
	d="
M339.081665,305.928833 
	C339.139130,305.779083 339.319336,305.727814 339.768158,305.759216 
	C340.036743,305.841858 339.643127,306.084778 339.643127,306.084778 
	C339.643127,306.084778 339.204376,306.027313 339.081665,305.928833 
z"/>
</svg>